G04 #@! TF.FileFunction,Soldermask,Top*
%FSLAX46Y46*%
G04 Gerber Fmt 4.6, Leading zero omitted, Abs format (unit mm)*
G04 Created by KiCad (PCBNEW 4.0.6) date Wed Mar 22 15:21:32 2017*
%MOMM*%
%LPD*%
G01*
G04 APERTURE LIST*
%ADD10C,0.100000*%
%ADD11R,2.127200X2.127200*%
%ADD12O,2.127200X2.127200*%
%ADD13R,2.200000X2.200000*%
%ADD14C,2.200000*%
%ADD15R,2.000000X2.000000*%
%ADD16O,2.000000X2.000000*%
%ADD17C,2.100000*%
%ADD18C,1.797000*%
%ADD19C,2.000000*%
%ADD20R,3.900000X3.900000*%
G04 APERTURE END LIST*
D10*
D11*
X60325000Y-39370000D03*
D12*
X60325000Y-36830000D03*
X62865000Y-39370000D03*
X62865000Y-36830000D03*
X65405000Y-39370000D03*
X65405000Y-36830000D03*
D13*
X89535000Y-38735000D03*
D14*
X92075000Y-38735000D03*
D13*
X89535000Y-46990000D03*
D14*
X92075000Y-46990000D03*
D13*
X89535000Y-55245000D03*
D14*
X92075000Y-55245000D03*
D13*
X89535000Y-63500000D03*
D14*
X92075000Y-63500000D03*
D13*
X89535000Y-71755000D03*
D14*
X92075000Y-71755000D03*
D13*
X95885000Y-38735000D03*
D14*
X98425000Y-38735000D03*
D13*
X95885000Y-46990000D03*
D14*
X98425000Y-46990000D03*
D13*
X95885000Y-55245000D03*
D14*
X98425000Y-55245000D03*
D13*
X95885000Y-63500000D03*
D14*
X98425000Y-63500000D03*
D13*
X95885000Y-71755000D03*
D14*
X98425000Y-71755000D03*
D13*
X102235000Y-38735000D03*
D14*
X104775000Y-38735000D03*
D13*
X102235000Y-46990000D03*
D14*
X104775000Y-46990000D03*
D13*
X102235000Y-55245000D03*
D14*
X104775000Y-55245000D03*
D13*
X102235000Y-63500000D03*
D14*
X104775000Y-63500000D03*
D13*
X102235000Y-71755000D03*
D14*
X104775000Y-71755000D03*
D13*
X108585000Y-38735000D03*
D14*
X111125000Y-38735000D03*
D13*
X108585000Y-46990000D03*
D14*
X111125000Y-46990000D03*
D13*
X108585000Y-55245000D03*
D14*
X111125000Y-55245000D03*
D13*
X108585000Y-63500000D03*
D14*
X111125000Y-63500000D03*
D13*
X108585000Y-71755000D03*
D14*
X111125000Y-71755000D03*
D13*
X114935000Y-38735000D03*
D14*
X117475000Y-38735000D03*
D13*
X114935000Y-46990000D03*
D14*
X117475000Y-46990000D03*
D13*
X114935000Y-55245000D03*
D14*
X117475000Y-55245000D03*
D13*
X114935000Y-63500000D03*
D14*
X117475000Y-63500000D03*
D13*
X114935000Y-71755000D03*
D14*
X117475000Y-71755000D03*
D13*
X121285000Y-38735000D03*
D14*
X123825000Y-38735000D03*
D13*
X121285000Y-46990000D03*
D14*
X123825000Y-46990000D03*
D13*
X121285000Y-55245000D03*
D14*
X123825000Y-55245000D03*
D13*
X121285000Y-63500000D03*
D14*
X123825000Y-63500000D03*
D13*
X121285000Y-71755000D03*
D14*
X123825000Y-71755000D03*
D13*
X127635000Y-38735000D03*
D14*
X130175000Y-38735000D03*
D13*
X127635000Y-46990000D03*
D14*
X130175000Y-46990000D03*
D13*
X127635000Y-55245000D03*
D14*
X130175000Y-55245000D03*
D13*
X127635000Y-63500000D03*
D14*
X130175000Y-63500000D03*
D13*
X127635000Y-71755000D03*
D14*
X130175000Y-71755000D03*
D13*
X133985000Y-38735000D03*
D14*
X136525000Y-38735000D03*
D13*
X133985000Y-46990000D03*
D14*
X136525000Y-46990000D03*
D13*
X133985000Y-55245000D03*
D14*
X136525000Y-55245000D03*
D13*
X133985000Y-63500000D03*
D14*
X136525000Y-63500000D03*
D13*
X133985000Y-71755000D03*
D14*
X136525000Y-71755000D03*
D13*
X140335000Y-38735000D03*
D14*
X142875000Y-38735000D03*
D13*
X140335000Y-46990000D03*
D14*
X142875000Y-46990000D03*
D13*
X140335000Y-55245000D03*
D14*
X142875000Y-55245000D03*
D13*
X140335000Y-63500000D03*
D14*
X142875000Y-63500000D03*
D13*
X140335000Y-71755000D03*
D14*
X142875000Y-71755000D03*
D13*
X146685000Y-38735000D03*
D14*
X149225000Y-38735000D03*
D13*
X146685000Y-46990000D03*
D14*
X149225000Y-46990000D03*
D13*
X146685000Y-55245000D03*
D14*
X149225000Y-55245000D03*
D13*
X146685000Y-63500000D03*
D14*
X149225000Y-63500000D03*
D13*
X146685000Y-71755000D03*
D14*
X149225000Y-71755000D03*
D15*
X71755000Y-45720000D03*
D16*
X79375000Y-78740000D03*
X71755000Y-48260000D03*
X79375000Y-76200000D03*
X71755000Y-50800000D03*
X79375000Y-73660000D03*
X71755000Y-53340000D03*
X79375000Y-71120000D03*
X71755000Y-55880000D03*
X79375000Y-68580000D03*
X71755000Y-58420000D03*
X79375000Y-66040000D03*
X71755000Y-60960000D03*
X79375000Y-63500000D03*
X71755000Y-63500000D03*
X79375000Y-60960000D03*
X71755000Y-66040000D03*
X79375000Y-58420000D03*
X71755000Y-68580000D03*
X79375000Y-55880000D03*
X71755000Y-71120000D03*
X79375000Y-53340000D03*
X71755000Y-73660000D03*
X79375000Y-50800000D03*
X71755000Y-76200000D03*
X79375000Y-48260000D03*
X71755000Y-78740000D03*
X79375000Y-45720000D03*
D17*
X62515000Y-50990000D03*
X56515000Y-50990000D03*
X62515000Y-46990000D03*
X56515000Y-46990000D03*
X63150000Y-64325000D03*
X57150000Y-64325000D03*
X63150000Y-60325000D03*
X57150000Y-60325000D03*
D18*
X84455000Y-41910000D03*
X84455000Y-39370000D03*
X84455000Y-49530000D03*
X84455000Y-46990000D03*
X84455000Y-57785000D03*
X84455000Y-55245000D03*
X84455000Y-66040000D03*
X84455000Y-63500000D03*
X84455000Y-74295000D03*
X84455000Y-71755000D03*
X67310000Y-48260000D03*
X67310000Y-50800000D03*
X67310000Y-56515000D03*
X67310000Y-53975000D03*
D19*
X67310000Y-61595000D03*
X67310000Y-64095000D03*
D20*
X59055000Y-68580000D03*
X59055000Y-74580000D03*
X63755000Y-71580000D03*
M02*
