M48
INCH,TZ
T1C0.016
T2C0.031
T3C0.032
T4C0.035
T5C0.039
T6C0.040
%
G90
G05
T1
X31750Y-16500
X34000Y-26750
X37000Y-27000
X48000Y-29500
X48000Y-30000
T2
X26500Y-24250
X26500Y-25234
X28250Y-18000
X28250Y-19000
X28250Y-20000
X28250Y-21000
X28250Y-22000
X28250Y-23000
X28250Y-24000
X28250Y-25000
X28250Y-26000
X28250Y-27000
X28250Y-28000
X28250Y-29000
X28250Y-30000
X28250Y-31000
X31250Y-18000
X31250Y-19000
X31250Y-20000
X31250Y-21000
X31250Y-22000
X31250Y-23000
X31250Y-24000
X31250Y-25000
X31250Y-26000
X31250Y-27000
X31250Y-28000
X31250Y-29000
X31250Y-30000
X31250Y-31000
T3
X26500Y-19000
X26500Y-20000
X26500Y-21250
X26500Y-22250
X33250Y-15500
X33250Y-16500
X33250Y-18500
X33250Y-19500
X33250Y-21750
X33250Y-22750
X33250Y-25000
X33250Y-26000
X33250Y-28250
X33250Y-29250
T4
X35250Y-15250
X35250Y-18500
X35250Y-21750
X35250Y-25000
X35250Y-28250
X36250Y-15250
X36250Y-18500
X36250Y-21750
X36250Y-25000
X36250Y-28250
X37750Y-15250
X37750Y-18500
X37750Y-21750
X37750Y-25000
X37750Y-28250
X38750Y-15250
X38750Y-18500
X38750Y-21750
X38750Y-25000
X38750Y-28250
X40250Y-15250
X40250Y-18500
X40250Y-21750
X40250Y-25000
X40250Y-28250
X41250Y-15250
X41250Y-18500
X41250Y-21750
X41250Y-25000
X41250Y-28250
X42750Y-15250
X42750Y-18500
X42750Y-21750
X42750Y-25000
X42750Y-28250
X43750Y-15250
X43750Y-18500
X43750Y-21750
X43750Y-25000
X43750Y-28250
X45250Y-15250
X45250Y-18500
X45250Y-21750
X45250Y-25000
X45250Y-28250
X46250Y-15250
X46250Y-18500
X46250Y-21750
X46250Y-25000
X46250Y-28250
X47750Y-15250
X47750Y-18500
X47750Y-21750
X47750Y-25000
X47750Y-28250
X48750Y-15250
X48750Y-18500
X48750Y-21750
X48750Y-25000
X48750Y-28250
X50250Y-15250
X50250Y-18500
X50250Y-21750
X50250Y-25000
X50250Y-28250
X51250Y-15250
X51250Y-18500
X51250Y-21750
X51250Y-25000
X51250Y-28250
X52750Y-15250
X52750Y-18500
X52750Y-21750
X52750Y-25000
X52750Y-28250
X53750Y-15250
X53750Y-18500
X53750Y-21750
X53750Y-25000
X53750Y-28250
X55250Y-15250
X55250Y-18500
X55250Y-21750
X55250Y-25000
X55250Y-28250
X56250Y-15250
X56250Y-18500
X56250Y-21750
X56250Y-25000
X56250Y-28250
X57750Y-15250
X57750Y-18500
X57750Y-21750
X57750Y-25000
X57750Y-28250
X58750Y-15250
X58750Y-18500
X58750Y-21750
X58750Y-25000
X58750Y-28250
T5
X22250Y-18500
X22250Y-20075
X22500Y-23750
X22500Y-25325
X24612Y-18500
X24612Y-20075
X24862Y-23750
X24862Y-25325
T6
X23750Y-14500
X23750Y-15500
X24750Y-14500
X24750Y-15500
X25750Y-14500
X25750Y-15500
T5
X22856Y-27000G85X23644Y-27000
G05
X22856Y-29362G85X23644Y-29362
G05
X25100Y-28575G85X25100Y-27787
G05
T0
M30
