G04 #@! TF.FileFunction,Copper,L1,Top,Signal*
%FSLAX46Y46*%
G04 Gerber Fmt 4.6, Leading zero omitted, Abs format (unit mm)*
G04 Created by KiCad (PCBNEW 4.0.6) date Wed Mar 22 15:21:32 2017*
%MOMM*%
%LPD*%
G01*
G04 APERTURE LIST*
%ADD10C,0.100000*%
%ADD11R,1.727200X1.727200*%
%ADD12O,1.727200X1.727200*%
%ADD13R,1.800000X1.800000*%
%ADD14C,1.800000*%
%ADD15R,1.600000X1.600000*%
%ADD16O,1.600000X1.600000*%
%ADD17C,1.700000*%
%ADD18C,1.397000*%
%ADD19C,1.600000*%
%ADD20R,3.500000X3.500000*%
%ADD21C,0.600000*%
%ADD22C,0.250000*%
%ADD23C,0.300000*%
G04 APERTURE END LIST*
D10*
D11*
X60325000Y-39370000D03*
D12*
X60325000Y-36830000D03*
X62865000Y-39370000D03*
X62865000Y-36830000D03*
X65405000Y-39370000D03*
X65405000Y-36830000D03*
D13*
X89535000Y-38735000D03*
D14*
X92075000Y-38735000D03*
D13*
X89535000Y-46990000D03*
D14*
X92075000Y-46990000D03*
D13*
X89535000Y-55245000D03*
D14*
X92075000Y-55245000D03*
D13*
X89535000Y-63500000D03*
D14*
X92075000Y-63500000D03*
D13*
X89535000Y-71755000D03*
D14*
X92075000Y-71755000D03*
D13*
X95885000Y-38735000D03*
D14*
X98425000Y-38735000D03*
D13*
X95885000Y-46990000D03*
D14*
X98425000Y-46990000D03*
D13*
X95885000Y-55245000D03*
D14*
X98425000Y-55245000D03*
D13*
X95885000Y-63500000D03*
D14*
X98425000Y-63500000D03*
D13*
X95885000Y-71755000D03*
D14*
X98425000Y-71755000D03*
D13*
X102235000Y-38735000D03*
D14*
X104775000Y-38735000D03*
D13*
X102235000Y-46990000D03*
D14*
X104775000Y-46990000D03*
D13*
X102235000Y-55245000D03*
D14*
X104775000Y-55245000D03*
D13*
X102235000Y-63500000D03*
D14*
X104775000Y-63500000D03*
D13*
X102235000Y-71755000D03*
D14*
X104775000Y-71755000D03*
D13*
X108585000Y-38735000D03*
D14*
X111125000Y-38735000D03*
D13*
X108585000Y-46990000D03*
D14*
X111125000Y-46990000D03*
D13*
X108585000Y-55245000D03*
D14*
X111125000Y-55245000D03*
D13*
X108585000Y-63500000D03*
D14*
X111125000Y-63500000D03*
D13*
X108585000Y-71755000D03*
D14*
X111125000Y-71755000D03*
D13*
X114935000Y-38735000D03*
D14*
X117475000Y-38735000D03*
D13*
X114935000Y-46990000D03*
D14*
X117475000Y-46990000D03*
D13*
X114935000Y-55245000D03*
D14*
X117475000Y-55245000D03*
D13*
X114935000Y-63500000D03*
D14*
X117475000Y-63500000D03*
D13*
X114935000Y-71755000D03*
D14*
X117475000Y-71755000D03*
D13*
X121285000Y-38735000D03*
D14*
X123825000Y-38735000D03*
D13*
X121285000Y-46990000D03*
D14*
X123825000Y-46990000D03*
D13*
X121285000Y-55245000D03*
D14*
X123825000Y-55245000D03*
D13*
X121285000Y-63500000D03*
D14*
X123825000Y-63500000D03*
D13*
X121285000Y-71755000D03*
D14*
X123825000Y-71755000D03*
D13*
X127635000Y-38735000D03*
D14*
X130175000Y-38735000D03*
D13*
X127635000Y-46990000D03*
D14*
X130175000Y-46990000D03*
D13*
X127635000Y-55245000D03*
D14*
X130175000Y-55245000D03*
D13*
X127635000Y-63500000D03*
D14*
X130175000Y-63500000D03*
D13*
X127635000Y-71755000D03*
D14*
X130175000Y-71755000D03*
D13*
X133985000Y-38735000D03*
D14*
X136525000Y-38735000D03*
D13*
X133985000Y-46990000D03*
D14*
X136525000Y-46990000D03*
D13*
X133985000Y-55245000D03*
D14*
X136525000Y-55245000D03*
D13*
X133985000Y-63500000D03*
D14*
X136525000Y-63500000D03*
D13*
X133985000Y-71755000D03*
D14*
X136525000Y-71755000D03*
D13*
X140335000Y-38735000D03*
D14*
X142875000Y-38735000D03*
D13*
X140335000Y-46990000D03*
D14*
X142875000Y-46990000D03*
D13*
X140335000Y-55245000D03*
D14*
X142875000Y-55245000D03*
D13*
X140335000Y-63500000D03*
D14*
X142875000Y-63500000D03*
D13*
X140335000Y-71755000D03*
D14*
X142875000Y-71755000D03*
D13*
X146685000Y-38735000D03*
D14*
X149225000Y-38735000D03*
D13*
X146685000Y-46990000D03*
D14*
X149225000Y-46990000D03*
D13*
X146685000Y-55245000D03*
D14*
X149225000Y-55245000D03*
D13*
X146685000Y-63500000D03*
D14*
X149225000Y-63500000D03*
D13*
X146685000Y-71755000D03*
D14*
X149225000Y-71755000D03*
D15*
X71755000Y-45720000D03*
D16*
X79375000Y-78740000D03*
X71755000Y-48260000D03*
X79375000Y-76200000D03*
X71755000Y-50800000D03*
X79375000Y-73660000D03*
X71755000Y-53340000D03*
X79375000Y-71120000D03*
X71755000Y-55880000D03*
X79375000Y-68580000D03*
X71755000Y-58420000D03*
X79375000Y-66040000D03*
X71755000Y-60960000D03*
X79375000Y-63500000D03*
X71755000Y-63500000D03*
X79375000Y-60960000D03*
X71755000Y-66040000D03*
X79375000Y-58420000D03*
X71755000Y-68580000D03*
X79375000Y-55880000D03*
X71755000Y-71120000D03*
X79375000Y-53340000D03*
X71755000Y-73660000D03*
X79375000Y-50800000D03*
X71755000Y-76200000D03*
X79375000Y-48260000D03*
X71755000Y-78740000D03*
X79375000Y-45720000D03*
D17*
X62515000Y-50990000D03*
X56515000Y-50990000D03*
X62515000Y-46990000D03*
X56515000Y-46990000D03*
X63150000Y-64325000D03*
X57150000Y-64325000D03*
X63150000Y-60325000D03*
X57150000Y-60325000D03*
D18*
X84455000Y-41910000D03*
X84455000Y-39370000D03*
X84455000Y-49530000D03*
X84455000Y-46990000D03*
X84455000Y-57785000D03*
X84455000Y-55245000D03*
X84455000Y-66040000D03*
X84455000Y-63500000D03*
X84455000Y-74295000D03*
X84455000Y-71755000D03*
X67310000Y-48260000D03*
X67310000Y-50800000D03*
X67310000Y-56515000D03*
X67310000Y-53975000D03*
D19*
X67310000Y-61595000D03*
X67310000Y-64095000D03*
D20*
X59055000Y-68580000D03*
X59055000Y-74580000D03*
X63755000Y-71580000D03*
D21*
X93980000Y-68580000D03*
X86360000Y-67945000D03*
X80645000Y-41910000D03*
X121920000Y-74930000D03*
X121920000Y-76200000D03*
D22*
X57150000Y-60325000D02*
X57150000Y-64325000D01*
X67310000Y-56515000D02*
X69215000Y-54610000D01*
X69215000Y-50165000D02*
X67310000Y-48260000D01*
X69215000Y-54610000D02*
X69215000Y-50165000D01*
X67310000Y-56515000D02*
X67310000Y-58420000D01*
X67310000Y-58420000D02*
X69215000Y-60325000D01*
X69215000Y-60325000D02*
X69215000Y-60960000D01*
X69215000Y-60960000D02*
X71755000Y-63500000D01*
X79375000Y-58420000D02*
X81280000Y-60325000D01*
X87630000Y-69850000D02*
X89535000Y-71755000D01*
X87630000Y-64135000D02*
X87630000Y-69850000D01*
X84455000Y-60960000D02*
X87630000Y-64135000D01*
X81915000Y-60960000D02*
X84455000Y-60960000D01*
X81280000Y-60325000D02*
X81915000Y-60960000D01*
X79375000Y-58420000D02*
X81280000Y-58420000D01*
X84455000Y-60325000D02*
X89535000Y-55245000D01*
X83185000Y-60325000D02*
X84455000Y-60325000D01*
X81280000Y-58420000D02*
X83185000Y-60325000D01*
X89535000Y-38735000D02*
X89535000Y-46990000D01*
X89535000Y-46990000D02*
X89535000Y-55245000D01*
X89535000Y-55245000D02*
X89535000Y-63500000D01*
X89535000Y-63500000D02*
X89535000Y-71755000D01*
X62865000Y-39370000D02*
X62865000Y-40005000D01*
X62865000Y-40005000D02*
X64135000Y-41275000D01*
X69215000Y-41275000D02*
X70485000Y-40005000D01*
X64135000Y-41275000D02*
X69215000Y-41275000D01*
X93980000Y-36195000D02*
X95885000Y-38100000D01*
X85725000Y-36195000D02*
X93980000Y-36195000D01*
X81915000Y-40005000D02*
X85725000Y-36195000D01*
X70485000Y-40005000D02*
X81915000Y-40005000D01*
X95885000Y-38100000D02*
X95885000Y-38735000D01*
X79375000Y-68580000D02*
X85725000Y-68580000D01*
X94615000Y-71755000D02*
X95885000Y-71755000D01*
X93980000Y-71120000D02*
X94615000Y-71755000D01*
X93980000Y-68580000D02*
X93980000Y-71120000D01*
X85725000Y-68580000D02*
X86360000Y-67945000D01*
X95885000Y-38735000D02*
X95885000Y-46990000D01*
X95885000Y-46990000D02*
X95885000Y-55245000D01*
X95885000Y-55245000D02*
X95885000Y-63500000D01*
X95885000Y-63500000D02*
X95885000Y-71755000D01*
X60325000Y-39370000D02*
X64135000Y-43180000D01*
X78740000Y-43180000D02*
X80645000Y-41910000D01*
X64135000Y-43180000D02*
X78740000Y-43180000D01*
X79375000Y-71120000D02*
X80645000Y-71120000D01*
X99060000Y-74930000D02*
X102235000Y-71755000D01*
X88900000Y-74930000D02*
X99060000Y-74930000D01*
X87630000Y-73660000D02*
X88900000Y-74930000D01*
X87630000Y-71120000D02*
X87630000Y-73660000D01*
X85725000Y-69215000D02*
X87630000Y-71120000D01*
X82550000Y-69215000D02*
X85725000Y-69215000D01*
X80645000Y-71120000D02*
X82550000Y-69215000D01*
X102235000Y-38735000D02*
X102235000Y-46990000D01*
X102235000Y-46990000D02*
X102235000Y-55245000D01*
X102235000Y-55245000D02*
X102235000Y-63500000D01*
X102235000Y-63500000D02*
X102235000Y-71755000D01*
X79375000Y-73660000D02*
X83185000Y-69850000D01*
X104140000Y-76200000D02*
X108585000Y-71755000D01*
X88900000Y-76200000D02*
X104140000Y-76200000D01*
X86360000Y-73660000D02*
X88900000Y-76200000D01*
X86360000Y-71120000D02*
X86360000Y-73660000D01*
X85090000Y-69850000D02*
X86360000Y-71120000D01*
X83185000Y-69850000D02*
X85090000Y-69850000D01*
X108585000Y-38735000D02*
X108585000Y-46990000D01*
X108585000Y-46990000D02*
X108585000Y-55245000D01*
X108585000Y-55245000D02*
X108585000Y-63500000D01*
X108585000Y-63500000D02*
X108585000Y-71755000D01*
X79375000Y-76200000D02*
X87630000Y-76200000D01*
X109220000Y-77470000D02*
X114935000Y-71755000D01*
X88900000Y-77470000D02*
X109220000Y-77470000D01*
X87630000Y-76200000D02*
X88900000Y-77470000D01*
X114935000Y-38735000D02*
X114935000Y-46990000D01*
X114935000Y-46990000D02*
X114935000Y-55245000D01*
X114935000Y-55245000D02*
X114935000Y-63500000D01*
X114935000Y-63500000D02*
X114935000Y-71755000D01*
X79375000Y-78740000D02*
X80010000Y-78740000D01*
X80010000Y-78740000D02*
X81915000Y-76835000D01*
X81915000Y-76835000D02*
X86995000Y-76835000D01*
X86995000Y-76835000D02*
X88265000Y-78105000D01*
X88265000Y-78105000D02*
X114935000Y-78105000D01*
X114935000Y-78105000D02*
X121285000Y-71755000D01*
X121285000Y-38735000D02*
X121285000Y-46990000D01*
X121285000Y-46990000D02*
X121285000Y-55245000D01*
X121285000Y-55245000D02*
X121285000Y-63500000D01*
X121285000Y-63500000D02*
X121285000Y-71755000D01*
X71755000Y-78740000D02*
X71755000Y-81280000D01*
X117475000Y-81915000D02*
X127635000Y-71755000D01*
X72390000Y-81915000D02*
X117475000Y-81915000D01*
X71755000Y-81280000D02*
X72390000Y-81915000D01*
X127635000Y-38735000D02*
X127635000Y-46990000D01*
X127635000Y-46990000D02*
X127635000Y-55245000D01*
X127635000Y-55245000D02*
X127635000Y-63500000D01*
X127635000Y-63500000D02*
X127635000Y-71755000D01*
X71755000Y-71120000D02*
X76200000Y-71120000D01*
X116205000Y-80645000D02*
X121920000Y-74930000D01*
X78105000Y-80645000D02*
X116205000Y-80645000D01*
X77470000Y-80010000D02*
X78105000Y-80645000D01*
X77470000Y-72390000D02*
X77470000Y-80010000D01*
X76200000Y-71120000D02*
X77470000Y-72390000D01*
X133985000Y-38735000D02*
X133985000Y-46990000D01*
X133985000Y-46990000D02*
X133985000Y-55245000D01*
X133985000Y-55245000D02*
X133985000Y-63500000D01*
X133985000Y-63500000D02*
X133985000Y-71755000D01*
X71755000Y-73660000D02*
X75565000Y-73660000D01*
X116840000Y-81280000D02*
X121920000Y-76200000D01*
X77470000Y-81280000D02*
X116840000Y-81280000D01*
X76835000Y-80645000D02*
X77470000Y-81280000D01*
X76835000Y-74930000D02*
X76835000Y-80645000D01*
X75565000Y-73660000D02*
X76835000Y-74930000D01*
X140335000Y-46990000D02*
X140335000Y-55245000D01*
X140335000Y-55245000D02*
X140335000Y-63500000D01*
X140335000Y-63500000D02*
X140335000Y-71755000D01*
X140335000Y-38735000D02*
X140335000Y-46990000D01*
X146685000Y-46990000D02*
X146685000Y-55245000D01*
X146685000Y-55245000D02*
X146685000Y-63500000D01*
X146685000Y-63500000D02*
X146685000Y-71755000D01*
X146685000Y-38735000D02*
X146685000Y-46990000D01*
X63150000Y-60325000D02*
X63150000Y-64325000D01*
D23*
G36*
X153572000Y-81817000D02*
X118680330Y-81817000D01*
X127171439Y-73325890D01*
X128535000Y-73325890D01*
X128778840Y-73280008D01*
X129002792Y-73135899D01*
X129144716Y-72928186D01*
X129291312Y-73075038D01*
X129863735Y-73312729D01*
X130483546Y-73313270D01*
X131056383Y-73076578D01*
X131495038Y-72638688D01*
X131732729Y-72066265D01*
X131733270Y-71446454D01*
X131496578Y-70873617D01*
X131058688Y-70434962D01*
X130486265Y-70197271D01*
X129866454Y-70196730D01*
X129293617Y-70433422D01*
X129142627Y-70584149D01*
X129015899Y-70387208D01*
X128796014Y-70236967D01*
X128535000Y-70184110D01*
X128418000Y-70184110D01*
X128418000Y-65070890D01*
X128535000Y-65070890D01*
X128778840Y-65025008D01*
X129002792Y-64880899D01*
X129144716Y-64673186D01*
X129291312Y-64820038D01*
X129863735Y-65057729D01*
X130483546Y-65058270D01*
X131056383Y-64821578D01*
X131495038Y-64383688D01*
X131732729Y-63811265D01*
X131733270Y-63191454D01*
X131496578Y-62618617D01*
X131058688Y-62179962D01*
X130486265Y-61942271D01*
X129866454Y-61941730D01*
X129293617Y-62178422D01*
X129142627Y-62329149D01*
X129015899Y-62132208D01*
X128796014Y-61981967D01*
X128535000Y-61929110D01*
X128418000Y-61929110D01*
X128418000Y-56815890D01*
X128535000Y-56815890D01*
X128778840Y-56770008D01*
X129002792Y-56625899D01*
X129144716Y-56418186D01*
X129291312Y-56565038D01*
X129863735Y-56802729D01*
X130483546Y-56803270D01*
X131056383Y-56566578D01*
X131495038Y-56128688D01*
X131732729Y-55556265D01*
X131733270Y-54936454D01*
X131496578Y-54363617D01*
X131058688Y-53924962D01*
X130486265Y-53687271D01*
X129866454Y-53686730D01*
X129293617Y-53923422D01*
X129142627Y-54074149D01*
X129015899Y-53877208D01*
X128796014Y-53726967D01*
X128535000Y-53674110D01*
X128418000Y-53674110D01*
X128418000Y-48560890D01*
X128535000Y-48560890D01*
X128778840Y-48515008D01*
X129002792Y-48370899D01*
X129144716Y-48163186D01*
X129291312Y-48310038D01*
X129863735Y-48547729D01*
X130483546Y-48548270D01*
X131056383Y-48311578D01*
X131495038Y-47873688D01*
X131732729Y-47301265D01*
X131733270Y-46681454D01*
X131496578Y-46108617D01*
X131058688Y-45669962D01*
X130486265Y-45432271D01*
X129866454Y-45431730D01*
X129293617Y-45668422D01*
X129142627Y-45819149D01*
X129015899Y-45622208D01*
X128796014Y-45471967D01*
X128535000Y-45419110D01*
X128418000Y-45419110D01*
X128418000Y-40305890D01*
X128535000Y-40305890D01*
X128778840Y-40260008D01*
X129002792Y-40115899D01*
X129144716Y-39908186D01*
X129291312Y-40055038D01*
X129863735Y-40292729D01*
X130483546Y-40293270D01*
X131056383Y-40056578D01*
X131495038Y-39618688D01*
X131732729Y-39046265D01*
X131733270Y-38426454D01*
X131496578Y-37853617D01*
X131477994Y-37835000D01*
X132414110Y-37835000D01*
X132414110Y-39635000D01*
X132459992Y-39878840D01*
X132604101Y-40102792D01*
X132823986Y-40253033D01*
X133085000Y-40305890D01*
X133202000Y-40305890D01*
X133202000Y-45419110D01*
X133085000Y-45419110D01*
X132841160Y-45464992D01*
X132617208Y-45609101D01*
X132466967Y-45828986D01*
X132414110Y-46090000D01*
X132414110Y-47890000D01*
X132459992Y-48133840D01*
X132604101Y-48357792D01*
X132823986Y-48508033D01*
X133085000Y-48560890D01*
X133202000Y-48560890D01*
X133202000Y-53674110D01*
X133085000Y-53674110D01*
X132841160Y-53719992D01*
X132617208Y-53864101D01*
X132466967Y-54083986D01*
X132414110Y-54345000D01*
X132414110Y-56145000D01*
X132459992Y-56388840D01*
X132604101Y-56612792D01*
X132823986Y-56763033D01*
X133085000Y-56815890D01*
X133202000Y-56815890D01*
X133202000Y-61929110D01*
X133085000Y-61929110D01*
X132841160Y-61974992D01*
X132617208Y-62119101D01*
X132466967Y-62338986D01*
X132414110Y-62600000D01*
X132414110Y-64400000D01*
X132459992Y-64643840D01*
X132604101Y-64867792D01*
X132823986Y-65018033D01*
X133085000Y-65070890D01*
X133202000Y-65070890D01*
X133202000Y-70184110D01*
X133085000Y-70184110D01*
X132841160Y-70229992D01*
X132617208Y-70374101D01*
X132466967Y-70593986D01*
X132414110Y-70855000D01*
X132414110Y-72655000D01*
X132459992Y-72898840D01*
X132604101Y-73122792D01*
X132823986Y-73273033D01*
X133085000Y-73325890D01*
X134885000Y-73325890D01*
X135128840Y-73280008D01*
X135352792Y-73135899D01*
X135494716Y-72928186D01*
X135641312Y-73075038D01*
X136213735Y-73312729D01*
X136833546Y-73313270D01*
X137406383Y-73076578D01*
X137845038Y-72638688D01*
X138082729Y-72066265D01*
X138083270Y-71446454D01*
X137846578Y-70873617D01*
X137408688Y-70434962D01*
X136836265Y-70197271D01*
X136216454Y-70196730D01*
X135643617Y-70433422D01*
X135492627Y-70584149D01*
X135365899Y-70387208D01*
X135146014Y-70236967D01*
X134885000Y-70184110D01*
X134768000Y-70184110D01*
X134768000Y-65070890D01*
X134885000Y-65070890D01*
X135128840Y-65025008D01*
X135352792Y-64880899D01*
X135494716Y-64673186D01*
X135641312Y-64820038D01*
X136213735Y-65057729D01*
X136833546Y-65058270D01*
X137406383Y-64821578D01*
X137845038Y-64383688D01*
X138082729Y-63811265D01*
X138083270Y-63191454D01*
X137846578Y-62618617D01*
X137408688Y-62179962D01*
X136836265Y-61942271D01*
X136216454Y-61941730D01*
X135643617Y-62178422D01*
X135492627Y-62329149D01*
X135365899Y-62132208D01*
X135146014Y-61981967D01*
X134885000Y-61929110D01*
X134768000Y-61929110D01*
X134768000Y-56815890D01*
X134885000Y-56815890D01*
X135128840Y-56770008D01*
X135352792Y-56625899D01*
X135494716Y-56418186D01*
X135641312Y-56565038D01*
X136213735Y-56802729D01*
X136833546Y-56803270D01*
X137406383Y-56566578D01*
X137845038Y-56128688D01*
X138082729Y-55556265D01*
X138083270Y-54936454D01*
X137846578Y-54363617D01*
X137408688Y-53924962D01*
X136836265Y-53687271D01*
X136216454Y-53686730D01*
X135643617Y-53923422D01*
X135492627Y-54074149D01*
X135365899Y-53877208D01*
X135146014Y-53726967D01*
X134885000Y-53674110D01*
X134768000Y-53674110D01*
X134768000Y-48560890D01*
X134885000Y-48560890D01*
X135128840Y-48515008D01*
X135352792Y-48370899D01*
X135494716Y-48163186D01*
X135641312Y-48310038D01*
X136213735Y-48547729D01*
X136833546Y-48548270D01*
X137406383Y-48311578D01*
X137845038Y-47873688D01*
X138082729Y-47301265D01*
X138083270Y-46681454D01*
X137846578Y-46108617D01*
X137408688Y-45669962D01*
X136836265Y-45432271D01*
X136216454Y-45431730D01*
X135643617Y-45668422D01*
X135492627Y-45819149D01*
X135365899Y-45622208D01*
X135146014Y-45471967D01*
X134885000Y-45419110D01*
X134768000Y-45419110D01*
X134768000Y-40305890D01*
X134885000Y-40305890D01*
X135128840Y-40260008D01*
X135352792Y-40115899D01*
X135494716Y-39908186D01*
X135641312Y-40055038D01*
X136213735Y-40292729D01*
X136833546Y-40293270D01*
X137406383Y-40056578D01*
X137845038Y-39618688D01*
X138082729Y-39046265D01*
X138083270Y-38426454D01*
X137846578Y-37853617D01*
X137827994Y-37835000D01*
X138764110Y-37835000D01*
X138764110Y-39635000D01*
X138809992Y-39878840D01*
X138954101Y-40102792D01*
X139173986Y-40253033D01*
X139435000Y-40305890D01*
X139552000Y-40305890D01*
X139552000Y-45419110D01*
X139435000Y-45419110D01*
X139191160Y-45464992D01*
X138967208Y-45609101D01*
X138816967Y-45828986D01*
X138764110Y-46090000D01*
X138764110Y-47890000D01*
X138809992Y-48133840D01*
X138954101Y-48357792D01*
X139173986Y-48508033D01*
X139435000Y-48560890D01*
X139552000Y-48560890D01*
X139552000Y-53674110D01*
X139435000Y-53674110D01*
X139191160Y-53719992D01*
X138967208Y-53864101D01*
X138816967Y-54083986D01*
X138764110Y-54345000D01*
X138764110Y-56145000D01*
X138809992Y-56388840D01*
X138954101Y-56612792D01*
X139173986Y-56763033D01*
X139435000Y-56815890D01*
X139552000Y-56815890D01*
X139552000Y-61929110D01*
X139435000Y-61929110D01*
X139191160Y-61974992D01*
X138967208Y-62119101D01*
X138816967Y-62338986D01*
X138764110Y-62600000D01*
X138764110Y-64400000D01*
X138809992Y-64643840D01*
X138954101Y-64867792D01*
X139173986Y-65018033D01*
X139435000Y-65070890D01*
X139552000Y-65070890D01*
X139552000Y-70184110D01*
X139435000Y-70184110D01*
X139191160Y-70229992D01*
X138967208Y-70374101D01*
X138816967Y-70593986D01*
X138764110Y-70855000D01*
X138764110Y-72655000D01*
X138809992Y-72898840D01*
X138954101Y-73122792D01*
X139173986Y-73273033D01*
X139435000Y-73325890D01*
X141235000Y-73325890D01*
X141478840Y-73280008D01*
X141702792Y-73135899D01*
X141844716Y-72928186D01*
X141991312Y-73075038D01*
X142563735Y-73312729D01*
X143183546Y-73313270D01*
X143756383Y-73076578D01*
X144195038Y-72638688D01*
X144432729Y-72066265D01*
X144433270Y-71446454D01*
X144196578Y-70873617D01*
X143758688Y-70434962D01*
X143186265Y-70197271D01*
X142566454Y-70196730D01*
X141993617Y-70433422D01*
X141842627Y-70584149D01*
X141715899Y-70387208D01*
X141496014Y-70236967D01*
X141235000Y-70184110D01*
X141118000Y-70184110D01*
X141118000Y-65070890D01*
X141235000Y-65070890D01*
X141478840Y-65025008D01*
X141702792Y-64880899D01*
X141844716Y-64673186D01*
X141991312Y-64820038D01*
X142563735Y-65057729D01*
X143183546Y-65058270D01*
X143756383Y-64821578D01*
X144195038Y-64383688D01*
X144432729Y-63811265D01*
X144433270Y-63191454D01*
X144196578Y-62618617D01*
X143758688Y-62179962D01*
X143186265Y-61942271D01*
X142566454Y-61941730D01*
X141993617Y-62178422D01*
X141842627Y-62329149D01*
X141715899Y-62132208D01*
X141496014Y-61981967D01*
X141235000Y-61929110D01*
X141118000Y-61929110D01*
X141118000Y-56815890D01*
X141235000Y-56815890D01*
X141478840Y-56770008D01*
X141702792Y-56625899D01*
X141844716Y-56418186D01*
X141991312Y-56565038D01*
X142563735Y-56802729D01*
X143183546Y-56803270D01*
X143756383Y-56566578D01*
X144195038Y-56128688D01*
X144432729Y-55556265D01*
X144433270Y-54936454D01*
X144196578Y-54363617D01*
X143758688Y-53924962D01*
X143186265Y-53687271D01*
X142566454Y-53686730D01*
X141993617Y-53923422D01*
X141842627Y-54074149D01*
X141715899Y-53877208D01*
X141496014Y-53726967D01*
X141235000Y-53674110D01*
X141118000Y-53674110D01*
X141118000Y-48560890D01*
X141235000Y-48560890D01*
X141478840Y-48515008D01*
X141702792Y-48370899D01*
X141844716Y-48163186D01*
X141991312Y-48310038D01*
X142563735Y-48547729D01*
X143183546Y-48548270D01*
X143756383Y-48311578D01*
X144195038Y-47873688D01*
X144432729Y-47301265D01*
X144433270Y-46681454D01*
X144196578Y-46108617D01*
X143758688Y-45669962D01*
X143186265Y-45432271D01*
X142566454Y-45431730D01*
X141993617Y-45668422D01*
X141842627Y-45819149D01*
X141715899Y-45622208D01*
X141496014Y-45471967D01*
X141235000Y-45419110D01*
X141118000Y-45419110D01*
X141118000Y-40305890D01*
X141235000Y-40305890D01*
X141478840Y-40260008D01*
X141702792Y-40115899D01*
X141844716Y-39908186D01*
X141991312Y-40055038D01*
X142563735Y-40292729D01*
X143183546Y-40293270D01*
X143756383Y-40056578D01*
X144195038Y-39618688D01*
X144432729Y-39046265D01*
X144433270Y-38426454D01*
X144196578Y-37853617D01*
X144177994Y-37835000D01*
X145114110Y-37835000D01*
X145114110Y-39635000D01*
X145159992Y-39878840D01*
X145304101Y-40102792D01*
X145523986Y-40253033D01*
X145785000Y-40305890D01*
X145902000Y-40305890D01*
X145902000Y-45419110D01*
X145785000Y-45419110D01*
X145541160Y-45464992D01*
X145317208Y-45609101D01*
X145166967Y-45828986D01*
X145114110Y-46090000D01*
X145114110Y-47890000D01*
X145159992Y-48133840D01*
X145304101Y-48357792D01*
X145523986Y-48508033D01*
X145785000Y-48560890D01*
X145902000Y-48560890D01*
X145902000Y-53674110D01*
X145785000Y-53674110D01*
X145541160Y-53719992D01*
X145317208Y-53864101D01*
X145166967Y-54083986D01*
X145114110Y-54345000D01*
X145114110Y-56145000D01*
X145159992Y-56388840D01*
X145304101Y-56612792D01*
X145523986Y-56763033D01*
X145785000Y-56815890D01*
X145902000Y-56815890D01*
X145902000Y-61929110D01*
X145785000Y-61929110D01*
X145541160Y-61974992D01*
X145317208Y-62119101D01*
X145166967Y-62338986D01*
X145114110Y-62600000D01*
X145114110Y-64400000D01*
X145159992Y-64643840D01*
X145304101Y-64867792D01*
X145523986Y-65018033D01*
X145785000Y-65070890D01*
X145902000Y-65070890D01*
X145902000Y-70184110D01*
X145785000Y-70184110D01*
X145541160Y-70229992D01*
X145317208Y-70374101D01*
X145166967Y-70593986D01*
X145114110Y-70855000D01*
X145114110Y-72655000D01*
X145159992Y-72898840D01*
X145304101Y-73122792D01*
X145523986Y-73273033D01*
X145785000Y-73325890D01*
X147585000Y-73325890D01*
X147828840Y-73280008D01*
X148052792Y-73135899D01*
X148194716Y-72928186D01*
X148341312Y-73075038D01*
X148913735Y-73312729D01*
X149533546Y-73313270D01*
X150106383Y-73076578D01*
X150545038Y-72638688D01*
X150782729Y-72066265D01*
X150783270Y-71446454D01*
X150546578Y-70873617D01*
X150108688Y-70434962D01*
X149536265Y-70197271D01*
X148916454Y-70196730D01*
X148343617Y-70433422D01*
X148192627Y-70584149D01*
X148065899Y-70387208D01*
X147846014Y-70236967D01*
X147585000Y-70184110D01*
X147468000Y-70184110D01*
X147468000Y-65070890D01*
X147585000Y-65070890D01*
X147828840Y-65025008D01*
X148052792Y-64880899D01*
X148194716Y-64673186D01*
X148341312Y-64820038D01*
X148913735Y-65057729D01*
X149533546Y-65058270D01*
X150106383Y-64821578D01*
X150545038Y-64383688D01*
X150782729Y-63811265D01*
X150783270Y-63191454D01*
X150546578Y-62618617D01*
X150108688Y-62179962D01*
X149536265Y-61942271D01*
X148916454Y-61941730D01*
X148343617Y-62178422D01*
X148192627Y-62329149D01*
X148065899Y-62132208D01*
X147846014Y-61981967D01*
X147585000Y-61929110D01*
X147468000Y-61929110D01*
X147468000Y-56815890D01*
X147585000Y-56815890D01*
X147828840Y-56770008D01*
X148052792Y-56625899D01*
X148194716Y-56418186D01*
X148341312Y-56565038D01*
X148913735Y-56802729D01*
X149533546Y-56803270D01*
X150106383Y-56566578D01*
X150545038Y-56128688D01*
X150782729Y-55556265D01*
X150783270Y-54936454D01*
X150546578Y-54363617D01*
X150108688Y-53924962D01*
X149536265Y-53687271D01*
X148916454Y-53686730D01*
X148343617Y-53923422D01*
X148192627Y-54074149D01*
X148065899Y-53877208D01*
X147846014Y-53726967D01*
X147585000Y-53674110D01*
X147468000Y-53674110D01*
X147468000Y-48560890D01*
X147585000Y-48560890D01*
X147828840Y-48515008D01*
X148052792Y-48370899D01*
X148194716Y-48163186D01*
X148341312Y-48310038D01*
X148913735Y-48547729D01*
X149533546Y-48548270D01*
X150106383Y-48311578D01*
X150545038Y-47873688D01*
X150782729Y-47301265D01*
X150783270Y-46681454D01*
X150546578Y-46108617D01*
X150108688Y-45669962D01*
X149536265Y-45432271D01*
X148916454Y-45431730D01*
X148343617Y-45668422D01*
X148192627Y-45819149D01*
X148065899Y-45622208D01*
X147846014Y-45471967D01*
X147585000Y-45419110D01*
X147468000Y-45419110D01*
X147468000Y-40305890D01*
X147585000Y-40305890D01*
X147828840Y-40260008D01*
X148052792Y-40115899D01*
X148194716Y-39908186D01*
X148341312Y-40055038D01*
X148913735Y-40292729D01*
X149533546Y-40293270D01*
X150106383Y-40056578D01*
X150545038Y-39618688D01*
X150782729Y-39046265D01*
X150783270Y-38426454D01*
X150546578Y-37853617D01*
X150108688Y-37414962D01*
X149536265Y-37177271D01*
X148916454Y-37176730D01*
X148343617Y-37413422D01*
X148192627Y-37564149D01*
X148065899Y-37367208D01*
X147846014Y-37216967D01*
X147585000Y-37164110D01*
X145785000Y-37164110D01*
X145541160Y-37209992D01*
X145317208Y-37354101D01*
X145166967Y-37573986D01*
X145114110Y-37835000D01*
X144177994Y-37835000D01*
X143758688Y-37414962D01*
X143186265Y-37177271D01*
X142566454Y-37176730D01*
X141993617Y-37413422D01*
X141842627Y-37564149D01*
X141715899Y-37367208D01*
X141496014Y-37216967D01*
X141235000Y-37164110D01*
X139435000Y-37164110D01*
X139191160Y-37209992D01*
X138967208Y-37354101D01*
X138816967Y-37573986D01*
X138764110Y-37835000D01*
X137827994Y-37835000D01*
X137408688Y-37414962D01*
X136836265Y-37177271D01*
X136216454Y-37176730D01*
X135643617Y-37413422D01*
X135492627Y-37564149D01*
X135365899Y-37367208D01*
X135146014Y-37216967D01*
X134885000Y-37164110D01*
X133085000Y-37164110D01*
X132841160Y-37209992D01*
X132617208Y-37354101D01*
X132466967Y-37573986D01*
X132414110Y-37835000D01*
X131477994Y-37835000D01*
X131058688Y-37414962D01*
X130486265Y-37177271D01*
X129866454Y-37176730D01*
X129293617Y-37413422D01*
X129142627Y-37564149D01*
X129015899Y-37367208D01*
X128796014Y-37216967D01*
X128535000Y-37164110D01*
X126735000Y-37164110D01*
X126491160Y-37209992D01*
X126267208Y-37354101D01*
X126116967Y-37573986D01*
X126064110Y-37835000D01*
X126064110Y-39635000D01*
X126109992Y-39878840D01*
X126254101Y-40102792D01*
X126473986Y-40253033D01*
X126735000Y-40305890D01*
X126852000Y-40305890D01*
X126852000Y-45419110D01*
X126735000Y-45419110D01*
X126491160Y-45464992D01*
X126267208Y-45609101D01*
X126116967Y-45828986D01*
X126064110Y-46090000D01*
X126064110Y-47890000D01*
X126109992Y-48133840D01*
X126254101Y-48357792D01*
X126473986Y-48508033D01*
X126735000Y-48560890D01*
X126852000Y-48560890D01*
X126852000Y-53674110D01*
X126735000Y-53674110D01*
X126491160Y-53719992D01*
X126267208Y-53864101D01*
X126116967Y-54083986D01*
X126064110Y-54345000D01*
X126064110Y-56145000D01*
X126109992Y-56388840D01*
X126254101Y-56612792D01*
X126473986Y-56763033D01*
X126735000Y-56815890D01*
X126852000Y-56815890D01*
X126852000Y-61929110D01*
X126735000Y-61929110D01*
X126491160Y-61974992D01*
X126267208Y-62119101D01*
X126116967Y-62338986D01*
X126064110Y-62600000D01*
X126064110Y-64400000D01*
X126109992Y-64643840D01*
X126254101Y-64867792D01*
X126473986Y-65018033D01*
X126735000Y-65070890D01*
X126852000Y-65070890D01*
X126852000Y-70184110D01*
X126735000Y-70184110D01*
X126491160Y-70229992D01*
X126267208Y-70374101D01*
X126116967Y-70593986D01*
X126064110Y-70855000D01*
X126064110Y-72218561D01*
X122678672Y-75603998D01*
X122639816Y-75565074D01*
X122731679Y-75473372D01*
X122877833Y-75121394D01*
X122878166Y-74740278D01*
X122732626Y-74388046D01*
X122463372Y-74118321D01*
X122111394Y-73972167D01*
X121730278Y-73971834D01*
X121378046Y-74117374D01*
X121108321Y-74386628D01*
X120962167Y-74738606D01*
X120962130Y-74780541D01*
X115880670Y-79862000D01*
X80298277Y-79862000D01*
X80434526Y-79770962D01*
X80750580Y-79297952D01*
X80798056Y-79059274D01*
X82239329Y-77618000D01*
X86670670Y-77618000D01*
X87711333Y-78658662D01*
X87711335Y-78658665D01*
X87833062Y-78740000D01*
X87965358Y-78828398D01*
X88265000Y-78888000D01*
X114934995Y-78888000D01*
X114935000Y-78888001D01*
X115234641Y-78828398D01*
X115488665Y-78658665D01*
X120821440Y-73325890D01*
X122185000Y-73325890D01*
X122428840Y-73280008D01*
X122652792Y-73135899D01*
X122794716Y-72928186D01*
X122941312Y-73075038D01*
X123513735Y-73312729D01*
X124133546Y-73313270D01*
X124706383Y-73076578D01*
X125145038Y-72638688D01*
X125382729Y-72066265D01*
X125383270Y-71446454D01*
X125146578Y-70873617D01*
X124708688Y-70434962D01*
X124136265Y-70197271D01*
X123516454Y-70196730D01*
X122943617Y-70433422D01*
X122792627Y-70584149D01*
X122665899Y-70387208D01*
X122446014Y-70236967D01*
X122185000Y-70184110D01*
X122068000Y-70184110D01*
X122068000Y-65070890D01*
X122185000Y-65070890D01*
X122428840Y-65025008D01*
X122652792Y-64880899D01*
X122794716Y-64673186D01*
X122941312Y-64820038D01*
X123513735Y-65057729D01*
X124133546Y-65058270D01*
X124706383Y-64821578D01*
X125145038Y-64383688D01*
X125382729Y-63811265D01*
X125383270Y-63191454D01*
X125146578Y-62618617D01*
X124708688Y-62179962D01*
X124136265Y-61942271D01*
X123516454Y-61941730D01*
X122943617Y-62178422D01*
X122792627Y-62329149D01*
X122665899Y-62132208D01*
X122446014Y-61981967D01*
X122185000Y-61929110D01*
X122068000Y-61929110D01*
X122068000Y-56815890D01*
X122185000Y-56815890D01*
X122428840Y-56770008D01*
X122652792Y-56625899D01*
X122794716Y-56418186D01*
X122941312Y-56565038D01*
X123513735Y-56802729D01*
X124133546Y-56803270D01*
X124706383Y-56566578D01*
X125145038Y-56128688D01*
X125382729Y-55556265D01*
X125383270Y-54936454D01*
X125146578Y-54363617D01*
X124708688Y-53924962D01*
X124136265Y-53687271D01*
X123516454Y-53686730D01*
X122943617Y-53923422D01*
X122792627Y-54074149D01*
X122665899Y-53877208D01*
X122446014Y-53726967D01*
X122185000Y-53674110D01*
X122068000Y-53674110D01*
X122068000Y-48560890D01*
X122185000Y-48560890D01*
X122428840Y-48515008D01*
X122652792Y-48370899D01*
X122794716Y-48163186D01*
X122941312Y-48310038D01*
X123513735Y-48547729D01*
X124133546Y-48548270D01*
X124706383Y-48311578D01*
X125145038Y-47873688D01*
X125382729Y-47301265D01*
X125383270Y-46681454D01*
X125146578Y-46108617D01*
X124708688Y-45669962D01*
X124136265Y-45432271D01*
X123516454Y-45431730D01*
X122943617Y-45668422D01*
X122792627Y-45819149D01*
X122665899Y-45622208D01*
X122446014Y-45471967D01*
X122185000Y-45419110D01*
X122068000Y-45419110D01*
X122068000Y-40305890D01*
X122185000Y-40305890D01*
X122428840Y-40260008D01*
X122652792Y-40115899D01*
X122794716Y-39908186D01*
X122941312Y-40055038D01*
X123513735Y-40292729D01*
X124133546Y-40293270D01*
X124706383Y-40056578D01*
X125145038Y-39618688D01*
X125382729Y-39046265D01*
X125383270Y-38426454D01*
X125146578Y-37853617D01*
X124708688Y-37414962D01*
X124136265Y-37177271D01*
X123516454Y-37176730D01*
X122943617Y-37413422D01*
X122792627Y-37564149D01*
X122665899Y-37367208D01*
X122446014Y-37216967D01*
X122185000Y-37164110D01*
X120385000Y-37164110D01*
X120141160Y-37209992D01*
X119917208Y-37354101D01*
X119766967Y-37573986D01*
X119714110Y-37835000D01*
X119714110Y-39635000D01*
X119759992Y-39878840D01*
X119904101Y-40102792D01*
X120123986Y-40253033D01*
X120385000Y-40305890D01*
X120502000Y-40305890D01*
X120502000Y-45419110D01*
X120385000Y-45419110D01*
X120141160Y-45464992D01*
X119917208Y-45609101D01*
X119766967Y-45828986D01*
X119714110Y-46090000D01*
X119714110Y-47890000D01*
X119759992Y-48133840D01*
X119904101Y-48357792D01*
X120123986Y-48508033D01*
X120385000Y-48560890D01*
X120502000Y-48560890D01*
X120502000Y-53674110D01*
X120385000Y-53674110D01*
X120141160Y-53719992D01*
X119917208Y-53864101D01*
X119766967Y-54083986D01*
X119714110Y-54345000D01*
X119714110Y-56145000D01*
X119759992Y-56388840D01*
X119904101Y-56612792D01*
X120123986Y-56763033D01*
X120385000Y-56815890D01*
X120502000Y-56815890D01*
X120502000Y-61929110D01*
X120385000Y-61929110D01*
X120141160Y-61974992D01*
X119917208Y-62119101D01*
X119766967Y-62338986D01*
X119714110Y-62600000D01*
X119714110Y-64400000D01*
X119759992Y-64643840D01*
X119904101Y-64867792D01*
X120123986Y-65018033D01*
X120385000Y-65070890D01*
X120502000Y-65070890D01*
X120502000Y-70184110D01*
X120385000Y-70184110D01*
X120141160Y-70229992D01*
X119917208Y-70374101D01*
X119766967Y-70593986D01*
X119714110Y-70855000D01*
X119714110Y-72218560D01*
X114610670Y-77322000D01*
X110475330Y-77322000D01*
X114471439Y-73325890D01*
X115835000Y-73325890D01*
X116078840Y-73280008D01*
X116302792Y-73135899D01*
X116444716Y-72928186D01*
X116591312Y-73075038D01*
X117163735Y-73312729D01*
X117783546Y-73313270D01*
X118356383Y-73076578D01*
X118795038Y-72638688D01*
X119032729Y-72066265D01*
X119033270Y-71446454D01*
X118796578Y-70873617D01*
X118358688Y-70434962D01*
X117786265Y-70197271D01*
X117166454Y-70196730D01*
X116593617Y-70433422D01*
X116442627Y-70584149D01*
X116315899Y-70387208D01*
X116096014Y-70236967D01*
X115835000Y-70184110D01*
X115718000Y-70184110D01*
X115718000Y-65070890D01*
X115835000Y-65070890D01*
X116078840Y-65025008D01*
X116302792Y-64880899D01*
X116444716Y-64673186D01*
X116591312Y-64820038D01*
X117163735Y-65057729D01*
X117783546Y-65058270D01*
X118356383Y-64821578D01*
X118795038Y-64383688D01*
X119032729Y-63811265D01*
X119033270Y-63191454D01*
X118796578Y-62618617D01*
X118358688Y-62179962D01*
X117786265Y-61942271D01*
X117166454Y-61941730D01*
X116593617Y-62178422D01*
X116442627Y-62329149D01*
X116315899Y-62132208D01*
X116096014Y-61981967D01*
X115835000Y-61929110D01*
X115718000Y-61929110D01*
X115718000Y-56815890D01*
X115835000Y-56815890D01*
X116078840Y-56770008D01*
X116302792Y-56625899D01*
X116444716Y-56418186D01*
X116591312Y-56565038D01*
X117163735Y-56802729D01*
X117783546Y-56803270D01*
X118356383Y-56566578D01*
X118795038Y-56128688D01*
X119032729Y-55556265D01*
X119033270Y-54936454D01*
X118796578Y-54363617D01*
X118358688Y-53924962D01*
X117786265Y-53687271D01*
X117166454Y-53686730D01*
X116593617Y-53923422D01*
X116442627Y-54074149D01*
X116315899Y-53877208D01*
X116096014Y-53726967D01*
X115835000Y-53674110D01*
X115718000Y-53674110D01*
X115718000Y-48560890D01*
X115835000Y-48560890D01*
X116078840Y-48515008D01*
X116302792Y-48370899D01*
X116444716Y-48163186D01*
X116591312Y-48310038D01*
X117163735Y-48547729D01*
X117783546Y-48548270D01*
X118356383Y-48311578D01*
X118795038Y-47873688D01*
X119032729Y-47301265D01*
X119033270Y-46681454D01*
X118796578Y-46108617D01*
X118358688Y-45669962D01*
X117786265Y-45432271D01*
X117166454Y-45431730D01*
X116593617Y-45668422D01*
X116442627Y-45819149D01*
X116315899Y-45622208D01*
X116096014Y-45471967D01*
X115835000Y-45419110D01*
X115718000Y-45419110D01*
X115718000Y-40305890D01*
X115835000Y-40305890D01*
X116078840Y-40260008D01*
X116302792Y-40115899D01*
X116444716Y-39908186D01*
X116591312Y-40055038D01*
X117163735Y-40292729D01*
X117783546Y-40293270D01*
X118356383Y-40056578D01*
X118795038Y-39618688D01*
X119032729Y-39046265D01*
X119033270Y-38426454D01*
X118796578Y-37853617D01*
X118358688Y-37414962D01*
X117786265Y-37177271D01*
X117166454Y-37176730D01*
X116593617Y-37413422D01*
X116442627Y-37564149D01*
X116315899Y-37367208D01*
X116096014Y-37216967D01*
X115835000Y-37164110D01*
X114035000Y-37164110D01*
X113791160Y-37209992D01*
X113567208Y-37354101D01*
X113416967Y-37573986D01*
X113364110Y-37835000D01*
X113364110Y-39635000D01*
X113409992Y-39878840D01*
X113554101Y-40102792D01*
X113773986Y-40253033D01*
X114035000Y-40305890D01*
X114152000Y-40305890D01*
X114152000Y-45419110D01*
X114035000Y-45419110D01*
X113791160Y-45464992D01*
X113567208Y-45609101D01*
X113416967Y-45828986D01*
X113364110Y-46090000D01*
X113364110Y-47890000D01*
X113409992Y-48133840D01*
X113554101Y-48357792D01*
X113773986Y-48508033D01*
X114035000Y-48560890D01*
X114152000Y-48560890D01*
X114152000Y-53674110D01*
X114035000Y-53674110D01*
X113791160Y-53719992D01*
X113567208Y-53864101D01*
X113416967Y-54083986D01*
X113364110Y-54345000D01*
X113364110Y-56145000D01*
X113409992Y-56388840D01*
X113554101Y-56612792D01*
X113773986Y-56763033D01*
X114035000Y-56815890D01*
X114152000Y-56815890D01*
X114152000Y-61929110D01*
X114035000Y-61929110D01*
X113791160Y-61974992D01*
X113567208Y-62119101D01*
X113416967Y-62338986D01*
X113364110Y-62600000D01*
X113364110Y-64400000D01*
X113409992Y-64643840D01*
X113554101Y-64867792D01*
X113773986Y-65018033D01*
X114035000Y-65070890D01*
X114152000Y-65070890D01*
X114152000Y-70184110D01*
X114035000Y-70184110D01*
X113791160Y-70229992D01*
X113567208Y-70374101D01*
X113416967Y-70593986D01*
X113364110Y-70855000D01*
X113364110Y-72218561D01*
X108895670Y-76687000D01*
X104760330Y-76687000D01*
X108121439Y-73325890D01*
X109485000Y-73325890D01*
X109728840Y-73280008D01*
X109952792Y-73135899D01*
X110094716Y-72928186D01*
X110241312Y-73075038D01*
X110813735Y-73312729D01*
X111433546Y-73313270D01*
X112006383Y-73076578D01*
X112445038Y-72638688D01*
X112682729Y-72066265D01*
X112683270Y-71446454D01*
X112446578Y-70873617D01*
X112008688Y-70434962D01*
X111436265Y-70197271D01*
X110816454Y-70196730D01*
X110243617Y-70433422D01*
X110092627Y-70584149D01*
X109965899Y-70387208D01*
X109746014Y-70236967D01*
X109485000Y-70184110D01*
X109368000Y-70184110D01*
X109368000Y-65070890D01*
X109485000Y-65070890D01*
X109728840Y-65025008D01*
X109952792Y-64880899D01*
X110094716Y-64673186D01*
X110241312Y-64820038D01*
X110813735Y-65057729D01*
X111433546Y-65058270D01*
X112006383Y-64821578D01*
X112445038Y-64383688D01*
X112682729Y-63811265D01*
X112683270Y-63191454D01*
X112446578Y-62618617D01*
X112008688Y-62179962D01*
X111436265Y-61942271D01*
X110816454Y-61941730D01*
X110243617Y-62178422D01*
X110092627Y-62329149D01*
X109965899Y-62132208D01*
X109746014Y-61981967D01*
X109485000Y-61929110D01*
X109368000Y-61929110D01*
X109368000Y-56815890D01*
X109485000Y-56815890D01*
X109728840Y-56770008D01*
X109952792Y-56625899D01*
X110094716Y-56418186D01*
X110241312Y-56565038D01*
X110813735Y-56802729D01*
X111433546Y-56803270D01*
X112006383Y-56566578D01*
X112445038Y-56128688D01*
X112682729Y-55556265D01*
X112683270Y-54936454D01*
X112446578Y-54363617D01*
X112008688Y-53924962D01*
X111436265Y-53687271D01*
X110816454Y-53686730D01*
X110243617Y-53923422D01*
X110092627Y-54074149D01*
X109965899Y-53877208D01*
X109746014Y-53726967D01*
X109485000Y-53674110D01*
X109368000Y-53674110D01*
X109368000Y-48560890D01*
X109485000Y-48560890D01*
X109728840Y-48515008D01*
X109952792Y-48370899D01*
X110094716Y-48163186D01*
X110241312Y-48310038D01*
X110813735Y-48547729D01*
X111433546Y-48548270D01*
X112006383Y-48311578D01*
X112445038Y-47873688D01*
X112682729Y-47301265D01*
X112683270Y-46681454D01*
X112446578Y-46108617D01*
X112008688Y-45669962D01*
X111436265Y-45432271D01*
X110816454Y-45431730D01*
X110243617Y-45668422D01*
X110092627Y-45819149D01*
X109965899Y-45622208D01*
X109746014Y-45471967D01*
X109485000Y-45419110D01*
X109368000Y-45419110D01*
X109368000Y-40305890D01*
X109485000Y-40305890D01*
X109728840Y-40260008D01*
X109952792Y-40115899D01*
X110094716Y-39908186D01*
X110241312Y-40055038D01*
X110813735Y-40292729D01*
X111433546Y-40293270D01*
X112006383Y-40056578D01*
X112445038Y-39618688D01*
X112682729Y-39046265D01*
X112683270Y-38426454D01*
X112446578Y-37853617D01*
X112008688Y-37414962D01*
X111436265Y-37177271D01*
X110816454Y-37176730D01*
X110243617Y-37413422D01*
X110092627Y-37564149D01*
X109965899Y-37367208D01*
X109746014Y-37216967D01*
X109485000Y-37164110D01*
X107685000Y-37164110D01*
X107441160Y-37209992D01*
X107217208Y-37354101D01*
X107066967Y-37573986D01*
X107014110Y-37835000D01*
X107014110Y-39635000D01*
X107059992Y-39878840D01*
X107204101Y-40102792D01*
X107423986Y-40253033D01*
X107685000Y-40305890D01*
X107802000Y-40305890D01*
X107802000Y-45419110D01*
X107685000Y-45419110D01*
X107441160Y-45464992D01*
X107217208Y-45609101D01*
X107066967Y-45828986D01*
X107014110Y-46090000D01*
X107014110Y-47890000D01*
X107059992Y-48133840D01*
X107204101Y-48357792D01*
X107423986Y-48508033D01*
X107685000Y-48560890D01*
X107802000Y-48560890D01*
X107802000Y-53674110D01*
X107685000Y-53674110D01*
X107441160Y-53719992D01*
X107217208Y-53864101D01*
X107066967Y-54083986D01*
X107014110Y-54345000D01*
X107014110Y-56145000D01*
X107059992Y-56388840D01*
X107204101Y-56612792D01*
X107423986Y-56763033D01*
X107685000Y-56815890D01*
X107802000Y-56815890D01*
X107802000Y-61929110D01*
X107685000Y-61929110D01*
X107441160Y-61974992D01*
X107217208Y-62119101D01*
X107066967Y-62338986D01*
X107014110Y-62600000D01*
X107014110Y-64400000D01*
X107059992Y-64643840D01*
X107204101Y-64867792D01*
X107423986Y-65018033D01*
X107685000Y-65070890D01*
X107802000Y-65070890D01*
X107802000Y-70184110D01*
X107685000Y-70184110D01*
X107441160Y-70229992D01*
X107217208Y-70374101D01*
X107066967Y-70593986D01*
X107014110Y-70855000D01*
X107014110Y-72218561D01*
X103815670Y-75417000D01*
X99680330Y-75417000D01*
X101771440Y-73325890D01*
X103135000Y-73325890D01*
X103378840Y-73280008D01*
X103602792Y-73135899D01*
X103744716Y-72928186D01*
X103891312Y-73075038D01*
X104463735Y-73312729D01*
X105083546Y-73313270D01*
X105656383Y-73076578D01*
X106095038Y-72638688D01*
X106332729Y-72066265D01*
X106333270Y-71446454D01*
X106096578Y-70873617D01*
X105658688Y-70434962D01*
X105086265Y-70197271D01*
X104466454Y-70196730D01*
X103893617Y-70433422D01*
X103742627Y-70584149D01*
X103615899Y-70387208D01*
X103396014Y-70236967D01*
X103135000Y-70184110D01*
X103018000Y-70184110D01*
X103018000Y-65070890D01*
X103135000Y-65070890D01*
X103378840Y-65025008D01*
X103602792Y-64880899D01*
X103744716Y-64673186D01*
X103891312Y-64820038D01*
X104463735Y-65057729D01*
X105083546Y-65058270D01*
X105656383Y-64821578D01*
X106095038Y-64383688D01*
X106332729Y-63811265D01*
X106333270Y-63191454D01*
X106096578Y-62618617D01*
X105658688Y-62179962D01*
X105086265Y-61942271D01*
X104466454Y-61941730D01*
X103893617Y-62178422D01*
X103742627Y-62329149D01*
X103615899Y-62132208D01*
X103396014Y-61981967D01*
X103135000Y-61929110D01*
X103018000Y-61929110D01*
X103018000Y-56815890D01*
X103135000Y-56815890D01*
X103378840Y-56770008D01*
X103602792Y-56625899D01*
X103744716Y-56418186D01*
X103891312Y-56565038D01*
X104463735Y-56802729D01*
X105083546Y-56803270D01*
X105656383Y-56566578D01*
X106095038Y-56128688D01*
X106332729Y-55556265D01*
X106333270Y-54936454D01*
X106096578Y-54363617D01*
X105658688Y-53924962D01*
X105086265Y-53687271D01*
X104466454Y-53686730D01*
X103893617Y-53923422D01*
X103742627Y-54074149D01*
X103615899Y-53877208D01*
X103396014Y-53726967D01*
X103135000Y-53674110D01*
X103018000Y-53674110D01*
X103018000Y-48560890D01*
X103135000Y-48560890D01*
X103378840Y-48515008D01*
X103602792Y-48370899D01*
X103744716Y-48163186D01*
X103891312Y-48310038D01*
X104463735Y-48547729D01*
X105083546Y-48548270D01*
X105656383Y-48311578D01*
X106095038Y-47873688D01*
X106332729Y-47301265D01*
X106333270Y-46681454D01*
X106096578Y-46108617D01*
X105658688Y-45669962D01*
X105086265Y-45432271D01*
X104466454Y-45431730D01*
X103893617Y-45668422D01*
X103742627Y-45819149D01*
X103615899Y-45622208D01*
X103396014Y-45471967D01*
X103135000Y-45419110D01*
X103018000Y-45419110D01*
X103018000Y-40305890D01*
X103135000Y-40305890D01*
X103378840Y-40260008D01*
X103602792Y-40115899D01*
X103744716Y-39908186D01*
X103891312Y-40055038D01*
X104463735Y-40292729D01*
X105083546Y-40293270D01*
X105656383Y-40056578D01*
X106095038Y-39618688D01*
X106332729Y-39046265D01*
X106333270Y-38426454D01*
X106096578Y-37853617D01*
X105658688Y-37414962D01*
X105086265Y-37177271D01*
X104466454Y-37176730D01*
X103893617Y-37413422D01*
X103742627Y-37564149D01*
X103615899Y-37367208D01*
X103396014Y-37216967D01*
X103135000Y-37164110D01*
X101335000Y-37164110D01*
X101091160Y-37209992D01*
X100867208Y-37354101D01*
X100716967Y-37573986D01*
X100664110Y-37835000D01*
X100664110Y-39635000D01*
X100709992Y-39878840D01*
X100854101Y-40102792D01*
X101073986Y-40253033D01*
X101335000Y-40305890D01*
X101452000Y-40305890D01*
X101452000Y-45419110D01*
X101335000Y-45419110D01*
X101091160Y-45464992D01*
X100867208Y-45609101D01*
X100716967Y-45828986D01*
X100664110Y-46090000D01*
X100664110Y-47890000D01*
X100709992Y-48133840D01*
X100854101Y-48357792D01*
X101073986Y-48508033D01*
X101335000Y-48560890D01*
X101452000Y-48560890D01*
X101452000Y-53674110D01*
X101335000Y-53674110D01*
X101091160Y-53719992D01*
X100867208Y-53864101D01*
X100716967Y-54083986D01*
X100664110Y-54345000D01*
X100664110Y-56145000D01*
X100709992Y-56388840D01*
X100854101Y-56612792D01*
X101073986Y-56763033D01*
X101335000Y-56815890D01*
X101452000Y-56815890D01*
X101452000Y-61929110D01*
X101335000Y-61929110D01*
X101091160Y-61974992D01*
X100867208Y-62119101D01*
X100716967Y-62338986D01*
X100664110Y-62600000D01*
X100664110Y-64400000D01*
X100709992Y-64643840D01*
X100854101Y-64867792D01*
X101073986Y-65018033D01*
X101335000Y-65070890D01*
X101452000Y-65070890D01*
X101452000Y-70184110D01*
X101335000Y-70184110D01*
X101091160Y-70229992D01*
X100867208Y-70374101D01*
X100716967Y-70593986D01*
X100664110Y-70855000D01*
X100664110Y-72218560D01*
X98735670Y-74147000D01*
X89224329Y-74147000D01*
X88413000Y-73335670D01*
X88413000Y-73280934D01*
X88635000Y-73325890D01*
X90435000Y-73325890D01*
X90678840Y-73280008D01*
X90902792Y-73135899D01*
X91044716Y-72928186D01*
X91191312Y-73075038D01*
X91763735Y-73312729D01*
X92383546Y-73313270D01*
X92956383Y-73076578D01*
X93395038Y-72638688D01*
X93632729Y-72066265D01*
X93632891Y-71880221D01*
X94061333Y-72308662D01*
X94061335Y-72308665D01*
X94183062Y-72390000D01*
X94314110Y-72477563D01*
X94314110Y-72655000D01*
X94359992Y-72898840D01*
X94504101Y-73122792D01*
X94723986Y-73273033D01*
X94985000Y-73325890D01*
X96785000Y-73325890D01*
X97028840Y-73280008D01*
X97252792Y-73135899D01*
X97394716Y-72928186D01*
X97541312Y-73075038D01*
X98113735Y-73312729D01*
X98733546Y-73313270D01*
X99306383Y-73076578D01*
X99745038Y-72638688D01*
X99982729Y-72066265D01*
X99983270Y-71446454D01*
X99746578Y-70873617D01*
X99308688Y-70434962D01*
X98736265Y-70197271D01*
X98116454Y-70196730D01*
X97543617Y-70433422D01*
X97392627Y-70584149D01*
X97265899Y-70387208D01*
X97046014Y-70236967D01*
X96785000Y-70184110D01*
X96668000Y-70184110D01*
X96668000Y-65070890D01*
X96785000Y-65070890D01*
X97028840Y-65025008D01*
X97252792Y-64880899D01*
X97394716Y-64673186D01*
X97541312Y-64820038D01*
X98113735Y-65057729D01*
X98733546Y-65058270D01*
X99306383Y-64821578D01*
X99745038Y-64383688D01*
X99982729Y-63811265D01*
X99983270Y-63191454D01*
X99746578Y-62618617D01*
X99308688Y-62179962D01*
X98736265Y-61942271D01*
X98116454Y-61941730D01*
X97543617Y-62178422D01*
X97392627Y-62329149D01*
X97265899Y-62132208D01*
X97046014Y-61981967D01*
X96785000Y-61929110D01*
X96668000Y-61929110D01*
X96668000Y-56815890D01*
X96785000Y-56815890D01*
X97028840Y-56770008D01*
X97252792Y-56625899D01*
X97394716Y-56418186D01*
X97541312Y-56565038D01*
X98113735Y-56802729D01*
X98733546Y-56803270D01*
X99306383Y-56566578D01*
X99745038Y-56128688D01*
X99982729Y-55556265D01*
X99983270Y-54936454D01*
X99746578Y-54363617D01*
X99308688Y-53924962D01*
X98736265Y-53687271D01*
X98116454Y-53686730D01*
X97543617Y-53923422D01*
X97392627Y-54074149D01*
X97265899Y-53877208D01*
X97046014Y-53726967D01*
X96785000Y-53674110D01*
X96668000Y-53674110D01*
X96668000Y-48560890D01*
X96785000Y-48560890D01*
X97028840Y-48515008D01*
X97252792Y-48370899D01*
X97394716Y-48163186D01*
X97541312Y-48310038D01*
X98113735Y-48547729D01*
X98733546Y-48548270D01*
X99306383Y-48311578D01*
X99745038Y-47873688D01*
X99982729Y-47301265D01*
X99983270Y-46681454D01*
X99746578Y-46108617D01*
X99308688Y-45669962D01*
X98736265Y-45432271D01*
X98116454Y-45431730D01*
X97543617Y-45668422D01*
X97392627Y-45819149D01*
X97265899Y-45622208D01*
X97046014Y-45471967D01*
X96785000Y-45419110D01*
X96668000Y-45419110D01*
X96668000Y-40305890D01*
X96785000Y-40305890D01*
X97028840Y-40260008D01*
X97252792Y-40115899D01*
X97394716Y-39908186D01*
X97541312Y-40055038D01*
X98113735Y-40292729D01*
X98733546Y-40293270D01*
X99306383Y-40056578D01*
X99745038Y-39618688D01*
X99982729Y-39046265D01*
X99983270Y-38426454D01*
X99746578Y-37853617D01*
X99308688Y-37414962D01*
X98736265Y-37177271D01*
X98116454Y-37176730D01*
X97543617Y-37413422D01*
X97392627Y-37564149D01*
X97265899Y-37367208D01*
X97046014Y-37216967D01*
X96785000Y-37164110D01*
X96056439Y-37164110D01*
X94533665Y-35641335D01*
X94279641Y-35471602D01*
X93980000Y-35411999D01*
X93979995Y-35412000D01*
X85725005Y-35412000D01*
X85725000Y-35411999D01*
X85425359Y-35471602D01*
X85171335Y-35641335D01*
X85171333Y-35641338D01*
X81590670Y-39222000D01*
X70485000Y-39222000D01*
X70185358Y-39281602D01*
X70174788Y-39288665D01*
X69931335Y-39451335D01*
X69931333Y-39451338D01*
X68890670Y-40492000D01*
X66441801Y-40492000D01*
X66510744Y-40445934D01*
X66840585Y-39952291D01*
X66956410Y-39370000D01*
X66840585Y-38787709D01*
X66510744Y-38294066D01*
X66220192Y-38099926D01*
X66286853Y-38070010D01*
X66694257Y-37638149D01*
X66888083Y-37170194D01*
X66758109Y-36934000D01*
X65509000Y-36934000D01*
X65509000Y-36954000D01*
X65301000Y-36954000D01*
X65301000Y-36934000D01*
X65281000Y-36934000D01*
X65281000Y-36726000D01*
X65301000Y-36726000D01*
X65301000Y-35476451D01*
X65509000Y-35476451D01*
X65509000Y-36726000D01*
X66758109Y-36726000D01*
X66888083Y-36489806D01*
X66694257Y-36021851D01*
X66286853Y-35589990D01*
X65745195Y-35346910D01*
X65509000Y-35476451D01*
X65301000Y-35476451D01*
X65064805Y-35346910D01*
X64523147Y-35589990D01*
X64135604Y-36000797D01*
X63970744Y-35754066D01*
X63477101Y-35424225D01*
X62894810Y-35308400D01*
X62835190Y-35308400D01*
X62252899Y-35424225D01*
X61759256Y-35754066D01*
X61595000Y-35999893D01*
X61430744Y-35754066D01*
X60937101Y-35424225D01*
X60354810Y-35308400D01*
X60295190Y-35308400D01*
X59712899Y-35424225D01*
X59219256Y-35754066D01*
X58889415Y-36247709D01*
X58773590Y-36830000D01*
X58889415Y-37412291D01*
X59207278Y-37888008D01*
X58993608Y-38025501D01*
X58843367Y-38245386D01*
X58790510Y-38506400D01*
X58790510Y-40233600D01*
X58836392Y-40477440D01*
X58980501Y-40701392D01*
X59200386Y-40851633D01*
X59461400Y-40904490D01*
X60752160Y-40904490D01*
X63581333Y-43733662D01*
X63581335Y-43733665D01*
X63835359Y-43903398D01*
X64135000Y-43963001D01*
X64135005Y-43963000D01*
X78740000Y-43963000D01*
X78815240Y-43948034D01*
X78891953Y-43948114D01*
X78963605Y-43918522D01*
X79039641Y-43903398D01*
X79103429Y-43860777D01*
X79174330Y-43831495D01*
X80619605Y-42867978D01*
X80834722Y-42868166D01*
X81186954Y-42722626D01*
X81456679Y-42453372D01*
X81602833Y-42101394D01*
X81603166Y-41720278D01*
X81457626Y-41368046D01*
X81188372Y-41098321D01*
X80836394Y-40952167D01*
X80455278Y-40951834D01*
X80103046Y-41097374D01*
X79833321Y-41366628D01*
X79750958Y-41564979D01*
X78502928Y-42397000D01*
X64459329Y-42397000D01*
X64116686Y-42054357D01*
X64135000Y-42058000D01*
X69214995Y-42058000D01*
X69215000Y-42058001D01*
X69514641Y-41998398D01*
X69768665Y-41828665D01*
X70809329Y-40788000D01*
X81914995Y-40788000D01*
X81915000Y-40788001D01*
X82214641Y-40728398D01*
X82468665Y-40558665D01*
X83183180Y-39844150D01*
X83304345Y-40137391D01*
X83685601Y-40519314D01*
X83976345Y-40640041D01*
X83687609Y-40759345D01*
X83305686Y-41140601D01*
X83098736Y-41638992D01*
X83098265Y-42178641D01*
X83304345Y-42677391D01*
X83685601Y-43059314D01*
X84183992Y-43266264D01*
X84723641Y-43266735D01*
X85222391Y-43060655D01*
X85604314Y-42679399D01*
X85811264Y-42181008D01*
X85811735Y-41641359D01*
X85605655Y-41142609D01*
X85224399Y-40760686D01*
X84933655Y-40639959D01*
X85222391Y-40520655D01*
X85604314Y-40139399D01*
X85811264Y-39641008D01*
X85811735Y-39101359D01*
X85605655Y-38602609D01*
X85224399Y-38220686D01*
X84929215Y-38098115D01*
X86049329Y-36978000D01*
X93655670Y-36978000D01*
X94347548Y-37669878D01*
X94314110Y-37835000D01*
X94314110Y-39635000D01*
X94359992Y-39878840D01*
X94504101Y-40102792D01*
X94723986Y-40253033D01*
X94985000Y-40305890D01*
X95102000Y-40305890D01*
X95102000Y-45419110D01*
X94985000Y-45419110D01*
X94741160Y-45464992D01*
X94517208Y-45609101D01*
X94366967Y-45828986D01*
X94314110Y-46090000D01*
X94314110Y-47890000D01*
X94359992Y-48133840D01*
X94504101Y-48357792D01*
X94723986Y-48508033D01*
X94985000Y-48560890D01*
X95102000Y-48560890D01*
X95102000Y-53674110D01*
X94985000Y-53674110D01*
X94741160Y-53719992D01*
X94517208Y-53864101D01*
X94366967Y-54083986D01*
X94314110Y-54345000D01*
X94314110Y-56145000D01*
X94359992Y-56388840D01*
X94504101Y-56612792D01*
X94723986Y-56763033D01*
X94985000Y-56815890D01*
X95102000Y-56815890D01*
X95102000Y-61929110D01*
X94985000Y-61929110D01*
X94741160Y-61974992D01*
X94517208Y-62119101D01*
X94366967Y-62338986D01*
X94314110Y-62600000D01*
X94314110Y-64400000D01*
X94359992Y-64643840D01*
X94504101Y-64867792D01*
X94723986Y-65018033D01*
X94985000Y-65070890D01*
X95102000Y-65070890D01*
X95102000Y-70184110D01*
X94985000Y-70184110D01*
X94763000Y-70225882D01*
X94763000Y-69152001D01*
X94791679Y-69123372D01*
X94937833Y-68771394D01*
X94938166Y-68390278D01*
X94792626Y-68038046D01*
X94523372Y-67768321D01*
X94171394Y-67622167D01*
X93790278Y-67621834D01*
X93438046Y-67767374D01*
X93168321Y-68036628D01*
X93022167Y-68388606D01*
X93021834Y-68769722D01*
X93167374Y-69121954D01*
X93197000Y-69151632D01*
X93197000Y-70673690D01*
X92958688Y-70434962D01*
X92386265Y-70197271D01*
X91766454Y-70196730D01*
X91193617Y-70433422D01*
X91042627Y-70584149D01*
X90915899Y-70387208D01*
X90696014Y-70236967D01*
X90435000Y-70184110D01*
X90318000Y-70184110D01*
X90318000Y-65070890D01*
X90435000Y-65070890D01*
X90678840Y-65025008D01*
X90902792Y-64880899D01*
X91044716Y-64673186D01*
X91191312Y-64820038D01*
X91763735Y-65057729D01*
X92383546Y-65058270D01*
X92956383Y-64821578D01*
X93395038Y-64383688D01*
X93632729Y-63811265D01*
X93633270Y-63191454D01*
X93396578Y-62618617D01*
X92958688Y-62179962D01*
X92386265Y-61942271D01*
X91766454Y-61941730D01*
X91193617Y-62178422D01*
X91042627Y-62329149D01*
X90915899Y-62132208D01*
X90696014Y-61981967D01*
X90435000Y-61929110D01*
X90318000Y-61929110D01*
X90318000Y-56815890D01*
X90435000Y-56815890D01*
X90678840Y-56770008D01*
X90902792Y-56625899D01*
X91044716Y-56418186D01*
X91191312Y-56565038D01*
X91763735Y-56802729D01*
X92383546Y-56803270D01*
X92956383Y-56566578D01*
X93395038Y-56128688D01*
X93632729Y-55556265D01*
X93633270Y-54936454D01*
X93396578Y-54363617D01*
X92958688Y-53924962D01*
X92386265Y-53687271D01*
X91766454Y-53686730D01*
X91193617Y-53923422D01*
X91042627Y-54074149D01*
X90915899Y-53877208D01*
X90696014Y-53726967D01*
X90435000Y-53674110D01*
X90318000Y-53674110D01*
X90318000Y-48560890D01*
X90435000Y-48560890D01*
X90678840Y-48515008D01*
X90902792Y-48370899D01*
X91044716Y-48163186D01*
X91191312Y-48310038D01*
X91763735Y-48547729D01*
X92383546Y-48548270D01*
X92956383Y-48311578D01*
X93395038Y-47873688D01*
X93632729Y-47301265D01*
X93633270Y-46681454D01*
X93396578Y-46108617D01*
X92958688Y-45669962D01*
X92386265Y-45432271D01*
X91766454Y-45431730D01*
X91193617Y-45668422D01*
X91042627Y-45819149D01*
X90915899Y-45622208D01*
X90696014Y-45471967D01*
X90435000Y-45419110D01*
X90318000Y-45419110D01*
X90318000Y-40305890D01*
X90435000Y-40305890D01*
X90678840Y-40260008D01*
X90902792Y-40115899D01*
X91044716Y-39908186D01*
X91191312Y-40055038D01*
X91763735Y-40292729D01*
X92383546Y-40293270D01*
X92956383Y-40056578D01*
X93395038Y-39618688D01*
X93632729Y-39046265D01*
X93633270Y-38426454D01*
X93396578Y-37853617D01*
X92958688Y-37414962D01*
X92386265Y-37177271D01*
X91766454Y-37176730D01*
X91193617Y-37413422D01*
X91042627Y-37564149D01*
X90915899Y-37367208D01*
X90696014Y-37216967D01*
X90435000Y-37164110D01*
X88635000Y-37164110D01*
X88391160Y-37209992D01*
X88167208Y-37354101D01*
X88016967Y-37573986D01*
X87964110Y-37835000D01*
X87964110Y-39635000D01*
X88009992Y-39878840D01*
X88154101Y-40102792D01*
X88373986Y-40253033D01*
X88635000Y-40305890D01*
X88752000Y-40305890D01*
X88752000Y-45419110D01*
X88635000Y-45419110D01*
X88391160Y-45464992D01*
X88167208Y-45609101D01*
X88016967Y-45828986D01*
X87964110Y-46090000D01*
X87964110Y-47890000D01*
X88009992Y-48133840D01*
X88154101Y-48357792D01*
X88373986Y-48508033D01*
X88635000Y-48560890D01*
X88752000Y-48560890D01*
X88752000Y-53674110D01*
X88635000Y-53674110D01*
X88391160Y-53719992D01*
X88167208Y-53864101D01*
X88016967Y-54083986D01*
X87964110Y-54345000D01*
X87964110Y-55708560D01*
X85811434Y-57861236D01*
X85811735Y-57516359D01*
X85605655Y-57017609D01*
X85224399Y-56635686D01*
X84933655Y-56514959D01*
X85222391Y-56395655D01*
X85604314Y-56014399D01*
X85811264Y-55516008D01*
X85811735Y-54976359D01*
X85605655Y-54477609D01*
X85224399Y-54095686D01*
X84726008Y-53888736D01*
X84186359Y-53888265D01*
X83687609Y-54094345D01*
X83305686Y-54475601D01*
X83098736Y-54973992D01*
X83098265Y-55513641D01*
X83304345Y-56012391D01*
X83685601Y-56394314D01*
X83976345Y-56515041D01*
X83687609Y-56634345D01*
X83305686Y-57015601D01*
X83098736Y-57513992D01*
X83098265Y-58053641D01*
X83304345Y-58552391D01*
X83685601Y-58934314D01*
X84183992Y-59141264D01*
X84531103Y-59141567D01*
X84130670Y-59542000D01*
X83509329Y-59542000D01*
X81833665Y-57866335D01*
X81579641Y-57696602D01*
X81280000Y-57636999D01*
X81279995Y-57637000D01*
X80600208Y-57637000D01*
X80434526Y-57389038D01*
X80076779Y-57150000D01*
X80434526Y-56910962D01*
X80750580Y-56437952D01*
X80861564Y-55880000D01*
X80750580Y-55322048D01*
X80434526Y-54849038D01*
X80076779Y-54610000D01*
X80434526Y-54370962D01*
X80750580Y-53897952D01*
X80861564Y-53340000D01*
X80750580Y-52782048D01*
X80434526Y-52309038D01*
X80076779Y-52070000D01*
X80434526Y-51830962D01*
X80750580Y-51357952D01*
X80861564Y-50800000D01*
X80750580Y-50242048D01*
X80434526Y-49769038D01*
X80076779Y-49530000D01*
X80434526Y-49290962D01*
X80750580Y-48817952D01*
X80861564Y-48260000D01*
X80750580Y-47702048D01*
X80454307Y-47258641D01*
X83098265Y-47258641D01*
X83304345Y-47757391D01*
X83685601Y-48139314D01*
X83976345Y-48260041D01*
X83687609Y-48379345D01*
X83305686Y-48760601D01*
X83098736Y-49258992D01*
X83098265Y-49798641D01*
X83304345Y-50297391D01*
X83685601Y-50679314D01*
X84183992Y-50886264D01*
X84723641Y-50886735D01*
X85222391Y-50680655D01*
X85604314Y-50299399D01*
X85811264Y-49801008D01*
X85811735Y-49261359D01*
X85605655Y-48762609D01*
X85224399Y-48380686D01*
X84933655Y-48259959D01*
X85222391Y-48140655D01*
X85604314Y-47759399D01*
X85811264Y-47261008D01*
X85811735Y-46721359D01*
X85605655Y-46222609D01*
X85224399Y-45840686D01*
X84726008Y-45633736D01*
X84186359Y-45633265D01*
X83687609Y-45839345D01*
X83305686Y-46220601D01*
X83098736Y-46718992D01*
X83098265Y-47258641D01*
X80454307Y-47258641D01*
X80434526Y-47229038D01*
X80076779Y-46990000D01*
X80434526Y-46750962D01*
X80750580Y-46277952D01*
X80861564Y-45720000D01*
X80750580Y-45162048D01*
X80434526Y-44689038D01*
X79961516Y-44372984D01*
X79403564Y-44262000D01*
X79346436Y-44262000D01*
X78788484Y-44372984D01*
X78315474Y-44689038D01*
X77999420Y-45162048D01*
X77888436Y-45720000D01*
X77999420Y-46277952D01*
X78315474Y-46750962D01*
X78673221Y-46990000D01*
X78315474Y-47229038D01*
X77999420Y-47702048D01*
X77888436Y-48260000D01*
X77999420Y-48817952D01*
X78315474Y-49290962D01*
X78673221Y-49530000D01*
X78315474Y-49769038D01*
X77999420Y-50242048D01*
X77888436Y-50800000D01*
X77999420Y-51357952D01*
X78315474Y-51830962D01*
X78673221Y-52070000D01*
X78315474Y-52309038D01*
X77999420Y-52782048D01*
X77888436Y-53340000D01*
X77999420Y-53897952D01*
X78315474Y-54370962D01*
X78673221Y-54610000D01*
X78315474Y-54849038D01*
X77999420Y-55322048D01*
X77888436Y-55880000D01*
X77999420Y-56437952D01*
X78315474Y-56910962D01*
X78673221Y-57150000D01*
X78315474Y-57389038D01*
X77999420Y-57862048D01*
X77888436Y-58420000D01*
X77999420Y-58977952D01*
X78315474Y-59450962D01*
X78673221Y-59690000D01*
X78315474Y-59929038D01*
X77999420Y-60402048D01*
X77888436Y-60960000D01*
X77999420Y-61517952D01*
X78315474Y-61990962D01*
X78673221Y-62230000D01*
X78315474Y-62469038D01*
X77999420Y-62942048D01*
X77888436Y-63500000D01*
X77999420Y-64057952D01*
X78315474Y-64530962D01*
X78673221Y-64770000D01*
X78315474Y-65009038D01*
X77999420Y-65482048D01*
X77888436Y-66040000D01*
X77999420Y-66597952D01*
X78315474Y-67070962D01*
X78673221Y-67310000D01*
X78315474Y-67549038D01*
X77999420Y-68022048D01*
X77888436Y-68580000D01*
X77999420Y-69137952D01*
X78315474Y-69610962D01*
X78673221Y-69850000D01*
X78315474Y-70089038D01*
X77999420Y-70562048D01*
X77888436Y-71120000D01*
X77999420Y-71677952D01*
X78315474Y-72150962D01*
X78673221Y-72390000D01*
X78315474Y-72629038D01*
X78253000Y-72722537D01*
X78253000Y-72390000D01*
X78193398Y-72090359D01*
X78193398Y-72090358D01*
X78125412Y-71988611D01*
X78023665Y-71836335D01*
X78023662Y-71836333D01*
X76753665Y-70566335D01*
X76499641Y-70396602D01*
X76200000Y-70336999D01*
X76199995Y-70337000D01*
X72980208Y-70337000D01*
X72814526Y-70089038D01*
X72456779Y-69850000D01*
X72814526Y-69610962D01*
X73130580Y-69137952D01*
X73241564Y-68580000D01*
X73130580Y-68022048D01*
X72814526Y-67549038D01*
X72456779Y-67310000D01*
X72814526Y-67070962D01*
X73130580Y-66597952D01*
X73241564Y-66040000D01*
X73130580Y-65482048D01*
X72814526Y-65009038D01*
X72440751Y-64759291D01*
X72603541Y-64685650D01*
X72992678Y-64270675D01*
X73175112Y-63830220D01*
X73044312Y-63604000D01*
X71859000Y-63604000D01*
X71859000Y-63624000D01*
X71651000Y-63624000D01*
X71651000Y-63604000D01*
X70465688Y-63604000D01*
X70334888Y-63830220D01*
X70517322Y-64270675D01*
X70906459Y-64685650D01*
X71069249Y-64759291D01*
X70695474Y-65009038D01*
X70379420Y-65482048D01*
X70268436Y-66040000D01*
X70379420Y-66597952D01*
X70695474Y-67070962D01*
X71053221Y-67310000D01*
X70695474Y-67549038D01*
X70379420Y-68022048D01*
X70268436Y-68580000D01*
X70379420Y-69137952D01*
X70695474Y-69610962D01*
X71053221Y-69850000D01*
X70695474Y-70089038D01*
X70379420Y-70562048D01*
X70268436Y-71120000D01*
X70379420Y-71677952D01*
X70695474Y-72150962D01*
X71053221Y-72390000D01*
X70695474Y-72629038D01*
X70379420Y-73102048D01*
X70268436Y-73660000D01*
X70379420Y-74217952D01*
X70695474Y-74690962D01*
X71053221Y-74930000D01*
X70695474Y-75169038D01*
X70379420Y-75642048D01*
X70268436Y-76200000D01*
X70379420Y-76757952D01*
X70695474Y-77230962D01*
X71053221Y-77470000D01*
X70695474Y-77709038D01*
X70379420Y-78182048D01*
X70268436Y-78740000D01*
X70379420Y-79297952D01*
X70695474Y-79770962D01*
X70972000Y-79955730D01*
X70972000Y-81279995D01*
X70971999Y-81280000D01*
X71031602Y-81579641D01*
X71190200Y-81817000D01*
X55343000Y-81817000D01*
X55343000Y-74848500D01*
X56647000Y-74848500D01*
X56647000Y-76460884D01*
X56747174Y-76702727D01*
X56932273Y-76887825D01*
X57174115Y-76988000D01*
X58786500Y-76988000D01*
X58951000Y-76823500D01*
X58951000Y-74684000D01*
X59159000Y-74684000D01*
X59159000Y-76823500D01*
X59323500Y-76988000D01*
X60935885Y-76988000D01*
X61177727Y-76887825D01*
X61362826Y-76702727D01*
X61463000Y-76460884D01*
X61463000Y-74848500D01*
X61298500Y-74684000D01*
X59159000Y-74684000D01*
X58951000Y-74684000D01*
X56811500Y-74684000D01*
X56647000Y-74848500D01*
X55343000Y-74848500D01*
X55343000Y-72699116D01*
X56647000Y-72699116D01*
X56647000Y-74311500D01*
X56811500Y-74476000D01*
X58951000Y-74476000D01*
X58951000Y-72336500D01*
X59159000Y-72336500D01*
X59159000Y-74476000D01*
X61298500Y-74476000D01*
X61463000Y-74311500D01*
X61463000Y-73718553D01*
X61632273Y-73887825D01*
X61874115Y-73988000D01*
X63486500Y-73988000D01*
X63651000Y-73823500D01*
X63651000Y-71684000D01*
X63859000Y-71684000D01*
X63859000Y-73823500D01*
X64023500Y-73988000D01*
X65635885Y-73988000D01*
X65877727Y-73887825D01*
X66062826Y-73702727D01*
X66163000Y-73460884D01*
X66163000Y-71848500D01*
X65998500Y-71684000D01*
X63859000Y-71684000D01*
X63651000Y-71684000D01*
X61511500Y-71684000D01*
X61347000Y-71848500D01*
X61347000Y-72441447D01*
X61177727Y-72272175D01*
X60935885Y-72172000D01*
X59323500Y-72172000D01*
X59159000Y-72336500D01*
X58951000Y-72336500D01*
X58786500Y-72172000D01*
X57174115Y-72172000D01*
X56932273Y-72272175D01*
X56747174Y-72457273D01*
X56647000Y-72699116D01*
X55343000Y-72699116D01*
X55343000Y-66830000D01*
X56634110Y-66830000D01*
X56634110Y-70330000D01*
X56679992Y-70573840D01*
X56824101Y-70797792D01*
X57043986Y-70948033D01*
X57305000Y-71000890D01*
X60805000Y-71000890D01*
X61048840Y-70955008D01*
X61272792Y-70810899D01*
X61347000Y-70702292D01*
X61347000Y-71311500D01*
X61511500Y-71476000D01*
X63651000Y-71476000D01*
X63651000Y-69336500D01*
X63859000Y-69336500D01*
X63859000Y-71476000D01*
X65998500Y-71476000D01*
X66163000Y-71311500D01*
X66163000Y-69699116D01*
X66062826Y-69457273D01*
X65877727Y-69272175D01*
X65635885Y-69172000D01*
X64023500Y-69172000D01*
X63859000Y-69336500D01*
X63651000Y-69336500D01*
X63486500Y-69172000D01*
X61874115Y-69172000D01*
X61632273Y-69272175D01*
X61475890Y-69428557D01*
X61475890Y-66830000D01*
X61430008Y-66586160D01*
X61285899Y-66362208D01*
X61066014Y-66211967D01*
X60805000Y-66159110D01*
X57305000Y-66159110D01*
X57061160Y-66204992D01*
X56837208Y-66349101D01*
X56686967Y-66568986D01*
X56634110Y-66830000D01*
X55343000Y-66830000D01*
X55343000Y-60623644D01*
X55641739Y-60623644D01*
X55870835Y-61178097D01*
X56294672Y-61602674D01*
X56367000Y-61632707D01*
X56367000Y-63016871D01*
X56296903Y-63045835D01*
X55872326Y-63469672D01*
X55642263Y-64023724D01*
X55641739Y-64623644D01*
X55870835Y-65178097D01*
X56294672Y-65602674D01*
X56848724Y-65832737D01*
X57448644Y-65833261D01*
X58003097Y-65604165D01*
X58427674Y-65180328D01*
X58657737Y-64626276D01*
X58658261Y-64026356D01*
X58429165Y-63471903D01*
X58005328Y-63047326D01*
X57933000Y-63017293D01*
X57933000Y-61633129D01*
X58003097Y-61604165D01*
X58427674Y-61180328D01*
X58657737Y-60626276D01*
X58657739Y-60623644D01*
X61641739Y-60623644D01*
X61870835Y-61178097D01*
X62294672Y-61602674D01*
X62367000Y-61632707D01*
X62367000Y-63016871D01*
X62296903Y-63045835D01*
X61872326Y-63469672D01*
X61642263Y-64023724D01*
X61641739Y-64623644D01*
X61870835Y-65178097D01*
X62294672Y-65602674D01*
X62848724Y-65832737D01*
X63448644Y-65833261D01*
X64003097Y-65604165D01*
X64427674Y-65180328D01*
X64460828Y-65100483D01*
X66451596Y-65100483D01*
X66522498Y-65355839D01*
X67064946Y-65561228D01*
X67644701Y-65543397D01*
X68097502Y-65355839D01*
X68168404Y-65100483D01*
X67310000Y-64242078D01*
X66451596Y-65100483D01*
X64460828Y-65100483D01*
X64657737Y-64626276D01*
X64658261Y-64026356D01*
X64585370Y-63849946D01*
X65843772Y-63849946D01*
X65861603Y-64429701D01*
X66049161Y-64882502D01*
X66304517Y-64953404D01*
X67162922Y-64095000D01*
X67457078Y-64095000D01*
X68315483Y-64953404D01*
X68570839Y-64882502D01*
X68776228Y-64340054D01*
X68758397Y-63760299D01*
X68570839Y-63307498D01*
X68315483Y-63236596D01*
X67457078Y-64095000D01*
X67162922Y-64095000D01*
X66304517Y-63236596D01*
X66049161Y-63307498D01*
X65843772Y-63849946D01*
X64585370Y-63849946D01*
X64429165Y-63471903D01*
X64005328Y-63047326D01*
X63933000Y-63017293D01*
X63933000Y-61883742D01*
X65851747Y-61883742D01*
X66073247Y-62419812D01*
X66483031Y-62830312D01*
X66519376Y-62845404D01*
X66451596Y-63089517D01*
X67310000Y-63947922D01*
X68168404Y-63089517D01*
X68100742Y-62845830D01*
X68134812Y-62831753D01*
X68545312Y-62421969D01*
X68767746Y-61886286D01*
X68768253Y-61306258D01*
X68546753Y-60770188D01*
X68136969Y-60359688D01*
X67601286Y-60137254D01*
X67021258Y-60136747D01*
X66485188Y-60358247D01*
X66074688Y-60768031D01*
X65852254Y-61303714D01*
X65851747Y-61883742D01*
X63933000Y-61883742D01*
X63933000Y-61633129D01*
X64003097Y-61604165D01*
X64427674Y-61180328D01*
X64657737Y-60626276D01*
X64658261Y-60026356D01*
X64429165Y-59471903D01*
X64005328Y-59047326D01*
X63451276Y-58817263D01*
X62851356Y-58816739D01*
X62296903Y-59045835D01*
X61872326Y-59469672D01*
X61642263Y-60023724D01*
X61641739Y-60623644D01*
X58657739Y-60623644D01*
X58658261Y-60026356D01*
X58429165Y-59471903D01*
X58005328Y-59047326D01*
X57451276Y-58817263D01*
X56851356Y-58816739D01*
X56296903Y-59045835D01*
X55872326Y-59469672D01*
X55642263Y-60023724D01*
X55641739Y-60623644D01*
X55343000Y-60623644D01*
X55343000Y-57447058D01*
X66525020Y-57447058D01*
X66583489Y-57691893D01*
X67089169Y-57880331D01*
X67628468Y-57860910D01*
X68036511Y-57691893D01*
X68094980Y-57447058D01*
X67310000Y-56662078D01*
X66525020Y-57447058D01*
X55343000Y-57447058D01*
X55343000Y-56294169D01*
X65944669Y-56294169D01*
X65964090Y-56833468D01*
X66133107Y-57241511D01*
X66377942Y-57299980D01*
X67162922Y-56515000D01*
X67457078Y-56515000D01*
X68242058Y-57299980D01*
X68486893Y-57241511D01*
X68675331Y-56735831D01*
X68655910Y-56196532D01*
X68486893Y-55788489D01*
X68242058Y-55730020D01*
X67457078Y-56515000D01*
X67162922Y-56515000D01*
X66377942Y-55730020D01*
X66133107Y-55788489D01*
X65944669Y-56294169D01*
X55343000Y-56294169D01*
X55343000Y-54243641D01*
X65953265Y-54243641D01*
X66159345Y-54742391D01*
X66540601Y-55124314D01*
X66819771Y-55240236D01*
X66583489Y-55338107D01*
X66525020Y-55582942D01*
X67310000Y-56367922D01*
X68094980Y-55582942D01*
X68036511Y-55338107D01*
X67787654Y-55245372D01*
X68077391Y-55125655D01*
X68459314Y-54744399D01*
X68666264Y-54246008D01*
X68666735Y-53706359D01*
X68460655Y-53207609D01*
X68079399Y-52825686D01*
X67581008Y-52618736D01*
X67041359Y-52618265D01*
X66542609Y-52824345D01*
X66160686Y-53205601D01*
X65953736Y-53703992D01*
X65953265Y-54243641D01*
X55343000Y-54243641D01*
X55343000Y-51950449D01*
X55659672Y-52267674D01*
X56213724Y-52497737D01*
X56813644Y-52498261D01*
X57368097Y-52269165D01*
X57792674Y-51845328D01*
X58022737Y-51291276D01*
X58022739Y-51288644D01*
X61006739Y-51288644D01*
X61235835Y-51843097D01*
X61659672Y-52267674D01*
X62213724Y-52497737D01*
X62813644Y-52498261D01*
X63368097Y-52269165D01*
X63792674Y-51845328D01*
X64022737Y-51291276D01*
X64022931Y-51068641D01*
X65953265Y-51068641D01*
X66159345Y-51567391D01*
X66540601Y-51949314D01*
X67038992Y-52156264D01*
X67578641Y-52156735D01*
X68077391Y-51950655D01*
X68459314Y-51569399D01*
X68666264Y-51071008D01*
X68666735Y-50531359D01*
X68460655Y-50032609D01*
X68079399Y-49650686D01*
X67800229Y-49534764D01*
X68036511Y-49436893D01*
X68094980Y-49192058D01*
X67310000Y-48407078D01*
X66525020Y-49192058D01*
X66583489Y-49436893D01*
X66832346Y-49529628D01*
X66542609Y-49649345D01*
X66160686Y-50030601D01*
X65953736Y-50528992D01*
X65953265Y-51068641D01*
X64022931Y-51068641D01*
X64023261Y-50691356D01*
X63794165Y-50136903D01*
X63370328Y-49712326D01*
X62816276Y-49482263D01*
X62216356Y-49481739D01*
X61661903Y-49710835D01*
X61237326Y-50134672D01*
X61007263Y-50688724D01*
X61006739Y-51288644D01*
X58022739Y-51288644D01*
X58023261Y-50691356D01*
X57794165Y-50136903D01*
X57370328Y-49712326D01*
X56816276Y-49482263D01*
X56216356Y-49481739D01*
X55661903Y-49710835D01*
X55343000Y-50029182D01*
X55343000Y-47950449D01*
X55659672Y-48267674D01*
X56213724Y-48497737D01*
X56813644Y-48498261D01*
X57368097Y-48269165D01*
X57792674Y-47845328D01*
X58022737Y-47291276D01*
X58022739Y-47288644D01*
X61006739Y-47288644D01*
X61235835Y-47843097D01*
X61659672Y-48267674D01*
X62213724Y-48497737D01*
X62813644Y-48498261D01*
X63368097Y-48269165D01*
X63598494Y-48039169D01*
X65944669Y-48039169D01*
X65964090Y-48578468D01*
X66133107Y-48986511D01*
X66377942Y-49044980D01*
X67162922Y-48260000D01*
X67457078Y-48260000D01*
X68242058Y-49044980D01*
X68486893Y-48986511D01*
X68675331Y-48480831D01*
X68667379Y-48260000D01*
X70268436Y-48260000D01*
X70379420Y-48817952D01*
X70695474Y-49290962D01*
X71053221Y-49530000D01*
X70695474Y-49769038D01*
X70379420Y-50242048D01*
X70268436Y-50800000D01*
X70379420Y-51357952D01*
X70695474Y-51830962D01*
X71053221Y-52070000D01*
X70695474Y-52309038D01*
X70379420Y-52782048D01*
X70268436Y-53340000D01*
X70379420Y-53897952D01*
X70695474Y-54370962D01*
X71053221Y-54610000D01*
X70695474Y-54849038D01*
X70379420Y-55322048D01*
X70268436Y-55880000D01*
X70379420Y-56437952D01*
X70695474Y-56910962D01*
X71053221Y-57150000D01*
X70695474Y-57389038D01*
X70379420Y-57862048D01*
X70268436Y-58420000D01*
X70379420Y-58977952D01*
X70695474Y-59450962D01*
X71053221Y-59690000D01*
X70695474Y-59929038D01*
X70379420Y-60402048D01*
X70268436Y-60960000D01*
X70379420Y-61517952D01*
X70695474Y-61990962D01*
X71069249Y-62240709D01*
X70906459Y-62314350D01*
X70517322Y-62729325D01*
X70334888Y-63169780D01*
X70465688Y-63396000D01*
X71651000Y-63396000D01*
X71651000Y-63376000D01*
X71859000Y-63376000D01*
X71859000Y-63396000D01*
X73044312Y-63396000D01*
X73175112Y-63169780D01*
X72992678Y-62729325D01*
X72603541Y-62314350D01*
X72440751Y-62240709D01*
X72814526Y-61990962D01*
X73130580Y-61517952D01*
X73241564Y-60960000D01*
X73130580Y-60402048D01*
X72814526Y-59929038D01*
X72456779Y-59690000D01*
X72814526Y-59450962D01*
X73130580Y-58977952D01*
X73241564Y-58420000D01*
X73130580Y-57862048D01*
X72814526Y-57389038D01*
X72456779Y-57150000D01*
X72814526Y-56910962D01*
X73130580Y-56437952D01*
X73241564Y-55880000D01*
X73130580Y-55322048D01*
X72814526Y-54849038D01*
X72456779Y-54610000D01*
X72814526Y-54370962D01*
X73130580Y-53897952D01*
X73241564Y-53340000D01*
X73130580Y-52782048D01*
X72814526Y-52309038D01*
X72456779Y-52070000D01*
X72814526Y-51830962D01*
X73130580Y-51357952D01*
X73241564Y-50800000D01*
X73130580Y-50242048D01*
X72814526Y-49769038D01*
X72456779Y-49530000D01*
X72814526Y-49290962D01*
X73130580Y-48817952D01*
X73241564Y-48260000D01*
X73130580Y-47702048D01*
X72814526Y-47229038D01*
X72712952Y-47161169D01*
X72798840Y-47145008D01*
X73022792Y-47000899D01*
X73173033Y-46781014D01*
X73225890Y-46520000D01*
X73225890Y-44920000D01*
X73180008Y-44676160D01*
X73035899Y-44452208D01*
X72816014Y-44301967D01*
X72555000Y-44249110D01*
X70955000Y-44249110D01*
X70711160Y-44294992D01*
X70487208Y-44439101D01*
X70336967Y-44658986D01*
X70284110Y-44920000D01*
X70284110Y-46520000D01*
X70329992Y-46763840D01*
X70474101Y-46987792D01*
X70693986Y-47138033D01*
X70799649Y-47159431D01*
X70695474Y-47229038D01*
X70379420Y-47702048D01*
X70268436Y-48260000D01*
X68667379Y-48260000D01*
X68655910Y-47941532D01*
X68486893Y-47533489D01*
X68242058Y-47475020D01*
X67457078Y-48260000D01*
X67162922Y-48260000D01*
X66377942Y-47475020D01*
X66133107Y-47533489D01*
X65944669Y-48039169D01*
X63598494Y-48039169D01*
X63792674Y-47845328D01*
X64007511Y-47327942D01*
X66525020Y-47327942D01*
X67310000Y-48112922D01*
X68094980Y-47327942D01*
X68036511Y-47083107D01*
X67530831Y-46894669D01*
X66991532Y-46914090D01*
X66583489Y-47083107D01*
X66525020Y-47327942D01*
X64007511Y-47327942D01*
X64022737Y-47291276D01*
X64023261Y-46691356D01*
X63794165Y-46136903D01*
X63370328Y-45712326D01*
X62816276Y-45482263D01*
X62216356Y-45481739D01*
X61661903Y-45710835D01*
X61237326Y-46134672D01*
X61007263Y-46688724D01*
X61006739Y-47288644D01*
X58022739Y-47288644D01*
X58023261Y-46691356D01*
X57794165Y-46136903D01*
X57370328Y-45712326D01*
X56816276Y-45482263D01*
X56216356Y-45481739D01*
X55661903Y-45710835D01*
X55343000Y-46029182D01*
X55343000Y-33753000D01*
X153572000Y-33753000D01*
X153572000Y-81817000D01*
X153572000Y-81817000D01*
G37*
X153572000Y-81817000D02*
X118680330Y-81817000D01*
X127171439Y-73325890D01*
X128535000Y-73325890D01*
X128778840Y-73280008D01*
X129002792Y-73135899D01*
X129144716Y-72928186D01*
X129291312Y-73075038D01*
X129863735Y-73312729D01*
X130483546Y-73313270D01*
X131056383Y-73076578D01*
X131495038Y-72638688D01*
X131732729Y-72066265D01*
X131733270Y-71446454D01*
X131496578Y-70873617D01*
X131058688Y-70434962D01*
X130486265Y-70197271D01*
X129866454Y-70196730D01*
X129293617Y-70433422D01*
X129142627Y-70584149D01*
X129015899Y-70387208D01*
X128796014Y-70236967D01*
X128535000Y-70184110D01*
X128418000Y-70184110D01*
X128418000Y-65070890D01*
X128535000Y-65070890D01*
X128778840Y-65025008D01*
X129002792Y-64880899D01*
X129144716Y-64673186D01*
X129291312Y-64820038D01*
X129863735Y-65057729D01*
X130483546Y-65058270D01*
X131056383Y-64821578D01*
X131495038Y-64383688D01*
X131732729Y-63811265D01*
X131733270Y-63191454D01*
X131496578Y-62618617D01*
X131058688Y-62179962D01*
X130486265Y-61942271D01*
X129866454Y-61941730D01*
X129293617Y-62178422D01*
X129142627Y-62329149D01*
X129015899Y-62132208D01*
X128796014Y-61981967D01*
X128535000Y-61929110D01*
X128418000Y-61929110D01*
X128418000Y-56815890D01*
X128535000Y-56815890D01*
X128778840Y-56770008D01*
X129002792Y-56625899D01*
X129144716Y-56418186D01*
X129291312Y-56565038D01*
X129863735Y-56802729D01*
X130483546Y-56803270D01*
X131056383Y-56566578D01*
X131495038Y-56128688D01*
X131732729Y-55556265D01*
X131733270Y-54936454D01*
X131496578Y-54363617D01*
X131058688Y-53924962D01*
X130486265Y-53687271D01*
X129866454Y-53686730D01*
X129293617Y-53923422D01*
X129142627Y-54074149D01*
X129015899Y-53877208D01*
X128796014Y-53726967D01*
X128535000Y-53674110D01*
X128418000Y-53674110D01*
X128418000Y-48560890D01*
X128535000Y-48560890D01*
X128778840Y-48515008D01*
X129002792Y-48370899D01*
X129144716Y-48163186D01*
X129291312Y-48310038D01*
X129863735Y-48547729D01*
X130483546Y-48548270D01*
X131056383Y-48311578D01*
X131495038Y-47873688D01*
X131732729Y-47301265D01*
X131733270Y-46681454D01*
X131496578Y-46108617D01*
X131058688Y-45669962D01*
X130486265Y-45432271D01*
X129866454Y-45431730D01*
X129293617Y-45668422D01*
X129142627Y-45819149D01*
X129015899Y-45622208D01*
X128796014Y-45471967D01*
X128535000Y-45419110D01*
X128418000Y-45419110D01*
X128418000Y-40305890D01*
X128535000Y-40305890D01*
X128778840Y-40260008D01*
X129002792Y-40115899D01*
X129144716Y-39908186D01*
X129291312Y-40055038D01*
X129863735Y-40292729D01*
X130483546Y-40293270D01*
X131056383Y-40056578D01*
X131495038Y-39618688D01*
X131732729Y-39046265D01*
X131733270Y-38426454D01*
X131496578Y-37853617D01*
X131477994Y-37835000D01*
X132414110Y-37835000D01*
X132414110Y-39635000D01*
X132459992Y-39878840D01*
X132604101Y-40102792D01*
X132823986Y-40253033D01*
X133085000Y-40305890D01*
X133202000Y-40305890D01*
X133202000Y-45419110D01*
X133085000Y-45419110D01*
X132841160Y-45464992D01*
X132617208Y-45609101D01*
X132466967Y-45828986D01*
X132414110Y-46090000D01*
X132414110Y-47890000D01*
X132459992Y-48133840D01*
X132604101Y-48357792D01*
X132823986Y-48508033D01*
X133085000Y-48560890D01*
X133202000Y-48560890D01*
X133202000Y-53674110D01*
X133085000Y-53674110D01*
X132841160Y-53719992D01*
X132617208Y-53864101D01*
X132466967Y-54083986D01*
X132414110Y-54345000D01*
X132414110Y-56145000D01*
X132459992Y-56388840D01*
X132604101Y-56612792D01*
X132823986Y-56763033D01*
X133085000Y-56815890D01*
X133202000Y-56815890D01*
X133202000Y-61929110D01*
X133085000Y-61929110D01*
X132841160Y-61974992D01*
X132617208Y-62119101D01*
X132466967Y-62338986D01*
X132414110Y-62600000D01*
X132414110Y-64400000D01*
X132459992Y-64643840D01*
X132604101Y-64867792D01*
X132823986Y-65018033D01*
X133085000Y-65070890D01*
X133202000Y-65070890D01*
X133202000Y-70184110D01*
X133085000Y-70184110D01*
X132841160Y-70229992D01*
X132617208Y-70374101D01*
X132466967Y-70593986D01*
X132414110Y-70855000D01*
X132414110Y-72655000D01*
X132459992Y-72898840D01*
X132604101Y-73122792D01*
X132823986Y-73273033D01*
X133085000Y-73325890D01*
X134885000Y-73325890D01*
X135128840Y-73280008D01*
X135352792Y-73135899D01*
X135494716Y-72928186D01*
X135641312Y-73075038D01*
X136213735Y-73312729D01*
X136833546Y-73313270D01*
X137406383Y-73076578D01*
X137845038Y-72638688D01*
X138082729Y-72066265D01*
X138083270Y-71446454D01*
X137846578Y-70873617D01*
X137408688Y-70434962D01*
X136836265Y-70197271D01*
X136216454Y-70196730D01*
X135643617Y-70433422D01*
X135492627Y-70584149D01*
X135365899Y-70387208D01*
X135146014Y-70236967D01*
X134885000Y-70184110D01*
X134768000Y-70184110D01*
X134768000Y-65070890D01*
X134885000Y-65070890D01*
X135128840Y-65025008D01*
X135352792Y-64880899D01*
X135494716Y-64673186D01*
X135641312Y-64820038D01*
X136213735Y-65057729D01*
X136833546Y-65058270D01*
X137406383Y-64821578D01*
X137845038Y-64383688D01*
X138082729Y-63811265D01*
X138083270Y-63191454D01*
X137846578Y-62618617D01*
X137408688Y-62179962D01*
X136836265Y-61942271D01*
X136216454Y-61941730D01*
X135643617Y-62178422D01*
X135492627Y-62329149D01*
X135365899Y-62132208D01*
X135146014Y-61981967D01*
X134885000Y-61929110D01*
X134768000Y-61929110D01*
X134768000Y-56815890D01*
X134885000Y-56815890D01*
X135128840Y-56770008D01*
X135352792Y-56625899D01*
X135494716Y-56418186D01*
X135641312Y-56565038D01*
X136213735Y-56802729D01*
X136833546Y-56803270D01*
X137406383Y-56566578D01*
X137845038Y-56128688D01*
X138082729Y-55556265D01*
X138083270Y-54936454D01*
X137846578Y-54363617D01*
X137408688Y-53924962D01*
X136836265Y-53687271D01*
X136216454Y-53686730D01*
X135643617Y-53923422D01*
X135492627Y-54074149D01*
X135365899Y-53877208D01*
X135146014Y-53726967D01*
X134885000Y-53674110D01*
X134768000Y-53674110D01*
X134768000Y-48560890D01*
X134885000Y-48560890D01*
X135128840Y-48515008D01*
X135352792Y-48370899D01*
X135494716Y-48163186D01*
X135641312Y-48310038D01*
X136213735Y-48547729D01*
X136833546Y-48548270D01*
X137406383Y-48311578D01*
X137845038Y-47873688D01*
X138082729Y-47301265D01*
X138083270Y-46681454D01*
X137846578Y-46108617D01*
X137408688Y-45669962D01*
X136836265Y-45432271D01*
X136216454Y-45431730D01*
X135643617Y-45668422D01*
X135492627Y-45819149D01*
X135365899Y-45622208D01*
X135146014Y-45471967D01*
X134885000Y-45419110D01*
X134768000Y-45419110D01*
X134768000Y-40305890D01*
X134885000Y-40305890D01*
X135128840Y-40260008D01*
X135352792Y-40115899D01*
X135494716Y-39908186D01*
X135641312Y-40055038D01*
X136213735Y-40292729D01*
X136833546Y-40293270D01*
X137406383Y-40056578D01*
X137845038Y-39618688D01*
X138082729Y-39046265D01*
X138083270Y-38426454D01*
X137846578Y-37853617D01*
X137827994Y-37835000D01*
X138764110Y-37835000D01*
X138764110Y-39635000D01*
X138809992Y-39878840D01*
X138954101Y-40102792D01*
X139173986Y-40253033D01*
X139435000Y-40305890D01*
X139552000Y-40305890D01*
X139552000Y-45419110D01*
X139435000Y-45419110D01*
X139191160Y-45464992D01*
X138967208Y-45609101D01*
X138816967Y-45828986D01*
X138764110Y-46090000D01*
X138764110Y-47890000D01*
X138809992Y-48133840D01*
X138954101Y-48357792D01*
X139173986Y-48508033D01*
X139435000Y-48560890D01*
X139552000Y-48560890D01*
X139552000Y-53674110D01*
X139435000Y-53674110D01*
X139191160Y-53719992D01*
X138967208Y-53864101D01*
X138816967Y-54083986D01*
X138764110Y-54345000D01*
X138764110Y-56145000D01*
X138809992Y-56388840D01*
X138954101Y-56612792D01*
X139173986Y-56763033D01*
X139435000Y-56815890D01*
X139552000Y-56815890D01*
X139552000Y-61929110D01*
X139435000Y-61929110D01*
X139191160Y-61974992D01*
X138967208Y-62119101D01*
X138816967Y-62338986D01*
X138764110Y-62600000D01*
X138764110Y-64400000D01*
X138809992Y-64643840D01*
X138954101Y-64867792D01*
X139173986Y-65018033D01*
X139435000Y-65070890D01*
X139552000Y-65070890D01*
X139552000Y-70184110D01*
X139435000Y-70184110D01*
X139191160Y-70229992D01*
X138967208Y-70374101D01*
X138816967Y-70593986D01*
X138764110Y-70855000D01*
X138764110Y-72655000D01*
X138809992Y-72898840D01*
X138954101Y-73122792D01*
X139173986Y-73273033D01*
X139435000Y-73325890D01*
X141235000Y-73325890D01*
X141478840Y-73280008D01*
X141702792Y-73135899D01*
X141844716Y-72928186D01*
X141991312Y-73075038D01*
X142563735Y-73312729D01*
X143183546Y-73313270D01*
X143756383Y-73076578D01*
X144195038Y-72638688D01*
X144432729Y-72066265D01*
X144433270Y-71446454D01*
X144196578Y-70873617D01*
X143758688Y-70434962D01*
X143186265Y-70197271D01*
X142566454Y-70196730D01*
X141993617Y-70433422D01*
X141842627Y-70584149D01*
X141715899Y-70387208D01*
X141496014Y-70236967D01*
X141235000Y-70184110D01*
X141118000Y-70184110D01*
X141118000Y-65070890D01*
X141235000Y-65070890D01*
X141478840Y-65025008D01*
X141702792Y-64880899D01*
X141844716Y-64673186D01*
X141991312Y-64820038D01*
X142563735Y-65057729D01*
X143183546Y-65058270D01*
X143756383Y-64821578D01*
X144195038Y-64383688D01*
X144432729Y-63811265D01*
X144433270Y-63191454D01*
X144196578Y-62618617D01*
X143758688Y-62179962D01*
X143186265Y-61942271D01*
X142566454Y-61941730D01*
X141993617Y-62178422D01*
X141842627Y-62329149D01*
X141715899Y-62132208D01*
X141496014Y-61981967D01*
X141235000Y-61929110D01*
X141118000Y-61929110D01*
X141118000Y-56815890D01*
X141235000Y-56815890D01*
X141478840Y-56770008D01*
X141702792Y-56625899D01*
X141844716Y-56418186D01*
X141991312Y-56565038D01*
X142563735Y-56802729D01*
X143183546Y-56803270D01*
X143756383Y-56566578D01*
X144195038Y-56128688D01*
X144432729Y-55556265D01*
X144433270Y-54936454D01*
X144196578Y-54363617D01*
X143758688Y-53924962D01*
X143186265Y-53687271D01*
X142566454Y-53686730D01*
X141993617Y-53923422D01*
X141842627Y-54074149D01*
X141715899Y-53877208D01*
X141496014Y-53726967D01*
X141235000Y-53674110D01*
X141118000Y-53674110D01*
X141118000Y-48560890D01*
X141235000Y-48560890D01*
X141478840Y-48515008D01*
X141702792Y-48370899D01*
X141844716Y-48163186D01*
X141991312Y-48310038D01*
X142563735Y-48547729D01*
X143183546Y-48548270D01*
X143756383Y-48311578D01*
X144195038Y-47873688D01*
X144432729Y-47301265D01*
X144433270Y-46681454D01*
X144196578Y-46108617D01*
X143758688Y-45669962D01*
X143186265Y-45432271D01*
X142566454Y-45431730D01*
X141993617Y-45668422D01*
X141842627Y-45819149D01*
X141715899Y-45622208D01*
X141496014Y-45471967D01*
X141235000Y-45419110D01*
X141118000Y-45419110D01*
X141118000Y-40305890D01*
X141235000Y-40305890D01*
X141478840Y-40260008D01*
X141702792Y-40115899D01*
X141844716Y-39908186D01*
X141991312Y-40055038D01*
X142563735Y-40292729D01*
X143183546Y-40293270D01*
X143756383Y-40056578D01*
X144195038Y-39618688D01*
X144432729Y-39046265D01*
X144433270Y-38426454D01*
X144196578Y-37853617D01*
X144177994Y-37835000D01*
X145114110Y-37835000D01*
X145114110Y-39635000D01*
X145159992Y-39878840D01*
X145304101Y-40102792D01*
X145523986Y-40253033D01*
X145785000Y-40305890D01*
X145902000Y-40305890D01*
X145902000Y-45419110D01*
X145785000Y-45419110D01*
X145541160Y-45464992D01*
X145317208Y-45609101D01*
X145166967Y-45828986D01*
X145114110Y-46090000D01*
X145114110Y-47890000D01*
X145159992Y-48133840D01*
X145304101Y-48357792D01*
X145523986Y-48508033D01*
X145785000Y-48560890D01*
X145902000Y-48560890D01*
X145902000Y-53674110D01*
X145785000Y-53674110D01*
X145541160Y-53719992D01*
X145317208Y-53864101D01*
X145166967Y-54083986D01*
X145114110Y-54345000D01*
X145114110Y-56145000D01*
X145159992Y-56388840D01*
X145304101Y-56612792D01*
X145523986Y-56763033D01*
X145785000Y-56815890D01*
X145902000Y-56815890D01*
X145902000Y-61929110D01*
X145785000Y-61929110D01*
X145541160Y-61974992D01*
X145317208Y-62119101D01*
X145166967Y-62338986D01*
X145114110Y-62600000D01*
X145114110Y-64400000D01*
X145159992Y-64643840D01*
X145304101Y-64867792D01*
X145523986Y-65018033D01*
X145785000Y-65070890D01*
X145902000Y-65070890D01*
X145902000Y-70184110D01*
X145785000Y-70184110D01*
X145541160Y-70229992D01*
X145317208Y-70374101D01*
X145166967Y-70593986D01*
X145114110Y-70855000D01*
X145114110Y-72655000D01*
X145159992Y-72898840D01*
X145304101Y-73122792D01*
X145523986Y-73273033D01*
X145785000Y-73325890D01*
X147585000Y-73325890D01*
X147828840Y-73280008D01*
X148052792Y-73135899D01*
X148194716Y-72928186D01*
X148341312Y-73075038D01*
X148913735Y-73312729D01*
X149533546Y-73313270D01*
X150106383Y-73076578D01*
X150545038Y-72638688D01*
X150782729Y-72066265D01*
X150783270Y-71446454D01*
X150546578Y-70873617D01*
X150108688Y-70434962D01*
X149536265Y-70197271D01*
X148916454Y-70196730D01*
X148343617Y-70433422D01*
X148192627Y-70584149D01*
X148065899Y-70387208D01*
X147846014Y-70236967D01*
X147585000Y-70184110D01*
X147468000Y-70184110D01*
X147468000Y-65070890D01*
X147585000Y-65070890D01*
X147828840Y-65025008D01*
X148052792Y-64880899D01*
X148194716Y-64673186D01*
X148341312Y-64820038D01*
X148913735Y-65057729D01*
X149533546Y-65058270D01*
X150106383Y-64821578D01*
X150545038Y-64383688D01*
X150782729Y-63811265D01*
X150783270Y-63191454D01*
X150546578Y-62618617D01*
X150108688Y-62179962D01*
X149536265Y-61942271D01*
X148916454Y-61941730D01*
X148343617Y-62178422D01*
X148192627Y-62329149D01*
X148065899Y-62132208D01*
X147846014Y-61981967D01*
X147585000Y-61929110D01*
X147468000Y-61929110D01*
X147468000Y-56815890D01*
X147585000Y-56815890D01*
X147828840Y-56770008D01*
X148052792Y-56625899D01*
X148194716Y-56418186D01*
X148341312Y-56565038D01*
X148913735Y-56802729D01*
X149533546Y-56803270D01*
X150106383Y-56566578D01*
X150545038Y-56128688D01*
X150782729Y-55556265D01*
X150783270Y-54936454D01*
X150546578Y-54363617D01*
X150108688Y-53924962D01*
X149536265Y-53687271D01*
X148916454Y-53686730D01*
X148343617Y-53923422D01*
X148192627Y-54074149D01*
X148065899Y-53877208D01*
X147846014Y-53726967D01*
X147585000Y-53674110D01*
X147468000Y-53674110D01*
X147468000Y-48560890D01*
X147585000Y-48560890D01*
X147828840Y-48515008D01*
X148052792Y-48370899D01*
X148194716Y-48163186D01*
X148341312Y-48310038D01*
X148913735Y-48547729D01*
X149533546Y-48548270D01*
X150106383Y-48311578D01*
X150545038Y-47873688D01*
X150782729Y-47301265D01*
X150783270Y-46681454D01*
X150546578Y-46108617D01*
X150108688Y-45669962D01*
X149536265Y-45432271D01*
X148916454Y-45431730D01*
X148343617Y-45668422D01*
X148192627Y-45819149D01*
X148065899Y-45622208D01*
X147846014Y-45471967D01*
X147585000Y-45419110D01*
X147468000Y-45419110D01*
X147468000Y-40305890D01*
X147585000Y-40305890D01*
X147828840Y-40260008D01*
X148052792Y-40115899D01*
X148194716Y-39908186D01*
X148341312Y-40055038D01*
X148913735Y-40292729D01*
X149533546Y-40293270D01*
X150106383Y-40056578D01*
X150545038Y-39618688D01*
X150782729Y-39046265D01*
X150783270Y-38426454D01*
X150546578Y-37853617D01*
X150108688Y-37414962D01*
X149536265Y-37177271D01*
X148916454Y-37176730D01*
X148343617Y-37413422D01*
X148192627Y-37564149D01*
X148065899Y-37367208D01*
X147846014Y-37216967D01*
X147585000Y-37164110D01*
X145785000Y-37164110D01*
X145541160Y-37209992D01*
X145317208Y-37354101D01*
X145166967Y-37573986D01*
X145114110Y-37835000D01*
X144177994Y-37835000D01*
X143758688Y-37414962D01*
X143186265Y-37177271D01*
X142566454Y-37176730D01*
X141993617Y-37413422D01*
X141842627Y-37564149D01*
X141715899Y-37367208D01*
X141496014Y-37216967D01*
X141235000Y-37164110D01*
X139435000Y-37164110D01*
X139191160Y-37209992D01*
X138967208Y-37354101D01*
X138816967Y-37573986D01*
X138764110Y-37835000D01*
X137827994Y-37835000D01*
X137408688Y-37414962D01*
X136836265Y-37177271D01*
X136216454Y-37176730D01*
X135643617Y-37413422D01*
X135492627Y-37564149D01*
X135365899Y-37367208D01*
X135146014Y-37216967D01*
X134885000Y-37164110D01*
X133085000Y-37164110D01*
X132841160Y-37209992D01*
X132617208Y-37354101D01*
X132466967Y-37573986D01*
X132414110Y-37835000D01*
X131477994Y-37835000D01*
X131058688Y-37414962D01*
X130486265Y-37177271D01*
X129866454Y-37176730D01*
X129293617Y-37413422D01*
X129142627Y-37564149D01*
X129015899Y-37367208D01*
X128796014Y-37216967D01*
X128535000Y-37164110D01*
X126735000Y-37164110D01*
X126491160Y-37209992D01*
X126267208Y-37354101D01*
X126116967Y-37573986D01*
X126064110Y-37835000D01*
X126064110Y-39635000D01*
X126109992Y-39878840D01*
X126254101Y-40102792D01*
X126473986Y-40253033D01*
X126735000Y-40305890D01*
X126852000Y-40305890D01*
X126852000Y-45419110D01*
X126735000Y-45419110D01*
X126491160Y-45464992D01*
X126267208Y-45609101D01*
X126116967Y-45828986D01*
X126064110Y-46090000D01*
X126064110Y-47890000D01*
X126109992Y-48133840D01*
X126254101Y-48357792D01*
X126473986Y-48508033D01*
X126735000Y-48560890D01*
X126852000Y-48560890D01*
X126852000Y-53674110D01*
X126735000Y-53674110D01*
X126491160Y-53719992D01*
X126267208Y-53864101D01*
X126116967Y-54083986D01*
X126064110Y-54345000D01*
X126064110Y-56145000D01*
X126109992Y-56388840D01*
X126254101Y-56612792D01*
X126473986Y-56763033D01*
X126735000Y-56815890D01*
X126852000Y-56815890D01*
X126852000Y-61929110D01*
X126735000Y-61929110D01*
X126491160Y-61974992D01*
X126267208Y-62119101D01*
X126116967Y-62338986D01*
X126064110Y-62600000D01*
X126064110Y-64400000D01*
X126109992Y-64643840D01*
X126254101Y-64867792D01*
X126473986Y-65018033D01*
X126735000Y-65070890D01*
X126852000Y-65070890D01*
X126852000Y-70184110D01*
X126735000Y-70184110D01*
X126491160Y-70229992D01*
X126267208Y-70374101D01*
X126116967Y-70593986D01*
X126064110Y-70855000D01*
X126064110Y-72218561D01*
X122678672Y-75603998D01*
X122639816Y-75565074D01*
X122731679Y-75473372D01*
X122877833Y-75121394D01*
X122878166Y-74740278D01*
X122732626Y-74388046D01*
X122463372Y-74118321D01*
X122111394Y-73972167D01*
X121730278Y-73971834D01*
X121378046Y-74117374D01*
X121108321Y-74386628D01*
X120962167Y-74738606D01*
X120962130Y-74780541D01*
X115880670Y-79862000D01*
X80298277Y-79862000D01*
X80434526Y-79770962D01*
X80750580Y-79297952D01*
X80798056Y-79059274D01*
X82239329Y-77618000D01*
X86670670Y-77618000D01*
X87711333Y-78658662D01*
X87711335Y-78658665D01*
X87833062Y-78740000D01*
X87965358Y-78828398D01*
X88265000Y-78888000D01*
X114934995Y-78888000D01*
X114935000Y-78888001D01*
X115234641Y-78828398D01*
X115488665Y-78658665D01*
X120821440Y-73325890D01*
X122185000Y-73325890D01*
X122428840Y-73280008D01*
X122652792Y-73135899D01*
X122794716Y-72928186D01*
X122941312Y-73075038D01*
X123513735Y-73312729D01*
X124133546Y-73313270D01*
X124706383Y-73076578D01*
X125145038Y-72638688D01*
X125382729Y-72066265D01*
X125383270Y-71446454D01*
X125146578Y-70873617D01*
X124708688Y-70434962D01*
X124136265Y-70197271D01*
X123516454Y-70196730D01*
X122943617Y-70433422D01*
X122792627Y-70584149D01*
X122665899Y-70387208D01*
X122446014Y-70236967D01*
X122185000Y-70184110D01*
X122068000Y-70184110D01*
X122068000Y-65070890D01*
X122185000Y-65070890D01*
X122428840Y-65025008D01*
X122652792Y-64880899D01*
X122794716Y-64673186D01*
X122941312Y-64820038D01*
X123513735Y-65057729D01*
X124133546Y-65058270D01*
X124706383Y-64821578D01*
X125145038Y-64383688D01*
X125382729Y-63811265D01*
X125383270Y-63191454D01*
X125146578Y-62618617D01*
X124708688Y-62179962D01*
X124136265Y-61942271D01*
X123516454Y-61941730D01*
X122943617Y-62178422D01*
X122792627Y-62329149D01*
X122665899Y-62132208D01*
X122446014Y-61981967D01*
X122185000Y-61929110D01*
X122068000Y-61929110D01*
X122068000Y-56815890D01*
X122185000Y-56815890D01*
X122428840Y-56770008D01*
X122652792Y-56625899D01*
X122794716Y-56418186D01*
X122941312Y-56565038D01*
X123513735Y-56802729D01*
X124133546Y-56803270D01*
X124706383Y-56566578D01*
X125145038Y-56128688D01*
X125382729Y-55556265D01*
X125383270Y-54936454D01*
X125146578Y-54363617D01*
X124708688Y-53924962D01*
X124136265Y-53687271D01*
X123516454Y-53686730D01*
X122943617Y-53923422D01*
X122792627Y-54074149D01*
X122665899Y-53877208D01*
X122446014Y-53726967D01*
X122185000Y-53674110D01*
X122068000Y-53674110D01*
X122068000Y-48560890D01*
X122185000Y-48560890D01*
X122428840Y-48515008D01*
X122652792Y-48370899D01*
X122794716Y-48163186D01*
X122941312Y-48310038D01*
X123513735Y-48547729D01*
X124133546Y-48548270D01*
X124706383Y-48311578D01*
X125145038Y-47873688D01*
X125382729Y-47301265D01*
X125383270Y-46681454D01*
X125146578Y-46108617D01*
X124708688Y-45669962D01*
X124136265Y-45432271D01*
X123516454Y-45431730D01*
X122943617Y-45668422D01*
X122792627Y-45819149D01*
X122665899Y-45622208D01*
X122446014Y-45471967D01*
X122185000Y-45419110D01*
X122068000Y-45419110D01*
X122068000Y-40305890D01*
X122185000Y-40305890D01*
X122428840Y-40260008D01*
X122652792Y-40115899D01*
X122794716Y-39908186D01*
X122941312Y-40055038D01*
X123513735Y-40292729D01*
X124133546Y-40293270D01*
X124706383Y-40056578D01*
X125145038Y-39618688D01*
X125382729Y-39046265D01*
X125383270Y-38426454D01*
X125146578Y-37853617D01*
X124708688Y-37414962D01*
X124136265Y-37177271D01*
X123516454Y-37176730D01*
X122943617Y-37413422D01*
X122792627Y-37564149D01*
X122665899Y-37367208D01*
X122446014Y-37216967D01*
X122185000Y-37164110D01*
X120385000Y-37164110D01*
X120141160Y-37209992D01*
X119917208Y-37354101D01*
X119766967Y-37573986D01*
X119714110Y-37835000D01*
X119714110Y-39635000D01*
X119759992Y-39878840D01*
X119904101Y-40102792D01*
X120123986Y-40253033D01*
X120385000Y-40305890D01*
X120502000Y-40305890D01*
X120502000Y-45419110D01*
X120385000Y-45419110D01*
X120141160Y-45464992D01*
X119917208Y-45609101D01*
X119766967Y-45828986D01*
X119714110Y-46090000D01*
X119714110Y-47890000D01*
X119759992Y-48133840D01*
X119904101Y-48357792D01*
X120123986Y-48508033D01*
X120385000Y-48560890D01*
X120502000Y-48560890D01*
X120502000Y-53674110D01*
X120385000Y-53674110D01*
X120141160Y-53719992D01*
X119917208Y-53864101D01*
X119766967Y-54083986D01*
X119714110Y-54345000D01*
X119714110Y-56145000D01*
X119759992Y-56388840D01*
X119904101Y-56612792D01*
X120123986Y-56763033D01*
X120385000Y-56815890D01*
X120502000Y-56815890D01*
X120502000Y-61929110D01*
X120385000Y-61929110D01*
X120141160Y-61974992D01*
X119917208Y-62119101D01*
X119766967Y-62338986D01*
X119714110Y-62600000D01*
X119714110Y-64400000D01*
X119759992Y-64643840D01*
X119904101Y-64867792D01*
X120123986Y-65018033D01*
X120385000Y-65070890D01*
X120502000Y-65070890D01*
X120502000Y-70184110D01*
X120385000Y-70184110D01*
X120141160Y-70229992D01*
X119917208Y-70374101D01*
X119766967Y-70593986D01*
X119714110Y-70855000D01*
X119714110Y-72218560D01*
X114610670Y-77322000D01*
X110475330Y-77322000D01*
X114471439Y-73325890D01*
X115835000Y-73325890D01*
X116078840Y-73280008D01*
X116302792Y-73135899D01*
X116444716Y-72928186D01*
X116591312Y-73075038D01*
X117163735Y-73312729D01*
X117783546Y-73313270D01*
X118356383Y-73076578D01*
X118795038Y-72638688D01*
X119032729Y-72066265D01*
X119033270Y-71446454D01*
X118796578Y-70873617D01*
X118358688Y-70434962D01*
X117786265Y-70197271D01*
X117166454Y-70196730D01*
X116593617Y-70433422D01*
X116442627Y-70584149D01*
X116315899Y-70387208D01*
X116096014Y-70236967D01*
X115835000Y-70184110D01*
X115718000Y-70184110D01*
X115718000Y-65070890D01*
X115835000Y-65070890D01*
X116078840Y-65025008D01*
X116302792Y-64880899D01*
X116444716Y-64673186D01*
X116591312Y-64820038D01*
X117163735Y-65057729D01*
X117783546Y-65058270D01*
X118356383Y-64821578D01*
X118795038Y-64383688D01*
X119032729Y-63811265D01*
X119033270Y-63191454D01*
X118796578Y-62618617D01*
X118358688Y-62179962D01*
X117786265Y-61942271D01*
X117166454Y-61941730D01*
X116593617Y-62178422D01*
X116442627Y-62329149D01*
X116315899Y-62132208D01*
X116096014Y-61981967D01*
X115835000Y-61929110D01*
X115718000Y-61929110D01*
X115718000Y-56815890D01*
X115835000Y-56815890D01*
X116078840Y-56770008D01*
X116302792Y-56625899D01*
X116444716Y-56418186D01*
X116591312Y-56565038D01*
X117163735Y-56802729D01*
X117783546Y-56803270D01*
X118356383Y-56566578D01*
X118795038Y-56128688D01*
X119032729Y-55556265D01*
X119033270Y-54936454D01*
X118796578Y-54363617D01*
X118358688Y-53924962D01*
X117786265Y-53687271D01*
X117166454Y-53686730D01*
X116593617Y-53923422D01*
X116442627Y-54074149D01*
X116315899Y-53877208D01*
X116096014Y-53726967D01*
X115835000Y-53674110D01*
X115718000Y-53674110D01*
X115718000Y-48560890D01*
X115835000Y-48560890D01*
X116078840Y-48515008D01*
X116302792Y-48370899D01*
X116444716Y-48163186D01*
X116591312Y-48310038D01*
X117163735Y-48547729D01*
X117783546Y-48548270D01*
X118356383Y-48311578D01*
X118795038Y-47873688D01*
X119032729Y-47301265D01*
X119033270Y-46681454D01*
X118796578Y-46108617D01*
X118358688Y-45669962D01*
X117786265Y-45432271D01*
X117166454Y-45431730D01*
X116593617Y-45668422D01*
X116442627Y-45819149D01*
X116315899Y-45622208D01*
X116096014Y-45471967D01*
X115835000Y-45419110D01*
X115718000Y-45419110D01*
X115718000Y-40305890D01*
X115835000Y-40305890D01*
X116078840Y-40260008D01*
X116302792Y-40115899D01*
X116444716Y-39908186D01*
X116591312Y-40055038D01*
X117163735Y-40292729D01*
X117783546Y-40293270D01*
X118356383Y-40056578D01*
X118795038Y-39618688D01*
X119032729Y-39046265D01*
X119033270Y-38426454D01*
X118796578Y-37853617D01*
X118358688Y-37414962D01*
X117786265Y-37177271D01*
X117166454Y-37176730D01*
X116593617Y-37413422D01*
X116442627Y-37564149D01*
X116315899Y-37367208D01*
X116096014Y-37216967D01*
X115835000Y-37164110D01*
X114035000Y-37164110D01*
X113791160Y-37209992D01*
X113567208Y-37354101D01*
X113416967Y-37573986D01*
X113364110Y-37835000D01*
X113364110Y-39635000D01*
X113409992Y-39878840D01*
X113554101Y-40102792D01*
X113773986Y-40253033D01*
X114035000Y-40305890D01*
X114152000Y-40305890D01*
X114152000Y-45419110D01*
X114035000Y-45419110D01*
X113791160Y-45464992D01*
X113567208Y-45609101D01*
X113416967Y-45828986D01*
X113364110Y-46090000D01*
X113364110Y-47890000D01*
X113409992Y-48133840D01*
X113554101Y-48357792D01*
X113773986Y-48508033D01*
X114035000Y-48560890D01*
X114152000Y-48560890D01*
X114152000Y-53674110D01*
X114035000Y-53674110D01*
X113791160Y-53719992D01*
X113567208Y-53864101D01*
X113416967Y-54083986D01*
X113364110Y-54345000D01*
X113364110Y-56145000D01*
X113409992Y-56388840D01*
X113554101Y-56612792D01*
X113773986Y-56763033D01*
X114035000Y-56815890D01*
X114152000Y-56815890D01*
X114152000Y-61929110D01*
X114035000Y-61929110D01*
X113791160Y-61974992D01*
X113567208Y-62119101D01*
X113416967Y-62338986D01*
X113364110Y-62600000D01*
X113364110Y-64400000D01*
X113409992Y-64643840D01*
X113554101Y-64867792D01*
X113773986Y-65018033D01*
X114035000Y-65070890D01*
X114152000Y-65070890D01*
X114152000Y-70184110D01*
X114035000Y-70184110D01*
X113791160Y-70229992D01*
X113567208Y-70374101D01*
X113416967Y-70593986D01*
X113364110Y-70855000D01*
X113364110Y-72218561D01*
X108895670Y-76687000D01*
X104760330Y-76687000D01*
X108121439Y-73325890D01*
X109485000Y-73325890D01*
X109728840Y-73280008D01*
X109952792Y-73135899D01*
X110094716Y-72928186D01*
X110241312Y-73075038D01*
X110813735Y-73312729D01*
X111433546Y-73313270D01*
X112006383Y-73076578D01*
X112445038Y-72638688D01*
X112682729Y-72066265D01*
X112683270Y-71446454D01*
X112446578Y-70873617D01*
X112008688Y-70434962D01*
X111436265Y-70197271D01*
X110816454Y-70196730D01*
X110243617Y-70433422D01*
X110092627Y-70584149D01*
X109965899Y-70387208D01*
X109746014Y-70236967D01*
X109485000Y-70184110D01*
X109368000Y-70184110D01*
X109368000Y-65070890D01*
X109485000Y-65070890D01*
X109728840Y-65025008D01*
X109952792Y-64880899D01*
X110094716Y-64673186D01*
X110241312Y-64820038D01*
X110813735Y-65057729D01*
X111433546Y-65058270D01*
X112006383Y-64821578D01*
X112445038Y-64383688D01*
X112682729Y-63811265D01*
X112683270Y-63191454D01*
X112446578Y-62618617D01*
X112008688Y-62179962D01*
X111436265Y-61942271D01*
X110816454Y-61941730D01*
X110243617Y-62178422D01*
X110092627Y-62329149D01*
X109965899Y-62132208D01*
X109746014Y-61981967D01*
X109485000Y-61929110D01*
X109368000Y-61929110D01*
X109368000Y-56815890D01*
X109485000Y-56815890D01*
X109728840Y-56770008D01*
X109952792Y-56625899D01*
X110094716Y-56418186D01*
X110241312Y-56565038D01*
X110813735Y-56802729D01*
X111433546Y-56803270D01*
X112006383Y-56566578D01*
X112445038Y-56128688D01*
X112682729Y-55556265D01*
X112683270Y-54936454D01*
X112446578Y-54363617D01*
X112008688Y-53924962D01*
X111436265Y-53687271D01*
X110816454Y-53686730D01*
X110243617Y-53923422D01*
X110092627Y-54074149D01*
X109965899Y-53877208D01*
X109746014Y-53726967D01*
X109485000Y-53674110D01*
X109368000Y-53674110D01*
X109368000Y-48560890D01*
X109485000Y-48560890D01*
X109728840Y-48515008D01*
X109952792Y-48370899D01*
X110094716Y-48163186D01*
X110241312Y-48310038D01*
X110813735Y-48547729D01*
X111433546Y-48548270D01*
X112006383Y-48311578D01*
X112445038Y-47873688D01*
X112682729Y-47301265D01*
X112683270Y-46681454D01*
X112446578Y-46108617D01*
X112008688Y-45669962D01*
X111436265Y-45432271D01*
X110816454Y-45431730D01*
X110243617Y-45668422D01*
X110092627Y-45819149D01*
X109965899Y-45622208D01*
X109746014Y-45471967D01*
X109485000Y-45419110D01*
X109368000Y-45419110D01*
X109368000Y-40305890D01*
X109485000Y-40305890D01*
X109728840Y-40260008D01*
X109952792Y-40115899D01*
X110094716Y-39908186D01*
X110241312Y-40055038D01*
X110813735Y-40292729D01*
X111433546Y-40293270D01*
X112006383Y-40056578D01*
X112445038Y-39618688D01*
X112682729Y-39046265D01*
X112683270Y-38426454D01*
X112446578Y-37853617D01*
X112008688Y-37414962D01*
X111436265Y-37177271D01*
X110816454Y-37176730D01*
X110243617Y-37413422D01*
X110092627Y-37564149D01*
X109965899Y-37367208D01*
X109746014Y-37216967D01*
X109485000Y-37164110D01*
X107685000Y-37164110D01*
X107441160Y-37209992D01*
X107217208Y-37354101D01*
X107066967Y-37573986D01*
X107014110Y-37835000D01*
X107014110Y-39635000D01*
X107059992Y-39878840D01*
X107204101Y-40102792D01*
X107423986Y-40253033D01*
X107685000Y-40305890D01*
X107802000Y-40305890D01*
X107802000Y-45419110D01*
X107685000Y-45419110D01*
X107441160Y-45464992D01*
X107217208Y-45609101D01*
X107066967Y-45828986D01*
X107014110Y-46090000D01*
X107014110Y-47890000D01*
X107059992Y-48133840D01*
X107204101Y-48357792D01*
X107423986Y-48508033D01*
X107685000Y-48560890D01*
X107802000Y-48560890D01*
X107802000Y-53674110D01*
X107685000Y-53674110D01*
X107441160Y-53719992D01*
X107217208Y-53864101D01*
X107066967Y-54083986D01*
X107014110Y-54345000D01*
X107014110Y-56145000D01*
X107059992Y-56388840D01*
X107204101Y-56612792D01*
X107423986Y-56763033D01*
X107685000Y-56815890D01*
X107802000Y-56815890D01*
X107802000Y-61929110D01*
X107685000Y-61929110D01*
X107441160Y-61974992D01*
X107217208Y-62119101D01*
X107066967Y-62338986D01*
X107014110Y-62600000D01*
X107014110Y-64400000D01*
X107059992Y-64643840D01*
X107204101Y-64867792D01*
X107423986Y-65018033D01*
X107685000Y-65070890D01*
X107802000Y-65070890D01*
X107802000Y-70184110D01*
X107685000Y-70184110D01*
X107441160Y-70229992D01*
X107217208Y-70374101D01*
X107066967Y-70593986D01*
X107014110Y-70855000D01*
X107014110Y-72218561D01*
X103815670Y-75417000D01*
X99680330Y-75417000D01*
X101771440Y-73325890D01*
X103135000Y-73325890D01*
X103378840Y-73280008D01*
X103602792Y-73135899D01*
X103744716Y-72928186D01*
X103891312Y-73075038D01*
X104463735Y-73312729D01*
X105083546Y-73313270D01*
X105656383Y-73076578D01*
X106095038Y-72638688D01*
X106332729Y-72066265D01*
X106333270Y-71446454D01*
X106096578Y-70873617D01*
X105658688Y-70434962D01*
X105086265Y-70197271D01*
X104466454Y-70196730D01*
X103893617Y-70433422D01*
X103742627Y-70584149D01*
X103615899Y-70387208D01*
X103396014Y-70236967D01*
X103135000Y-70184110D01*
X103018000Y-70184110D01*
X103018000Y-65070890D01*
X103135000Y-65070890D01*
X103378840Y-65025008D01*
X103602792Y-64880899D01*
X103744716Y-64673186D01*
X103891312Y-64820038D01*
X104463735Y-65057729D01*
X105083546Y-65058270D01*
X105656383Y-64821578D01*
X106095038Y-64383688D01*
X106332729Y-63811265D01*
X106333270Y-63191454D01*
X106096578Y-62618617D01*
X105658688Y-62179962D01*
X105086265Y-61942271D01*
X104466454Y-61941730D01*
X103893617Y-62178422D01*
X103742627Y-62329149D01*
X103615899Y-62132208D01*
X103396014Y-61981967D01*
X103135000Y-61929110D01*
X103018000Y-61929110D01*
X103018000Y-56815890D01*
X103135000Y-56815890D01*
X103378840Y-56770008D01*
X103602792Y-56625899D01*
X103744716Y-56418186D01*
X103891312Y-56565038D01*
X104463735Y-56802729D01*
X105083546Y-56803270D01*
X105656383Y-56566578D01*
X106095038Y-56128688D01*
X106332729Y-55556265D01*
X106333270Y-54936454D01*
X106096578Y-54363617D01*
X105658688Y-53924962D01*
X105086265Y-53687271D01*
X104466454Y-53686730D01*
X103893617Y-53923422D01*
X103742627Y-54074149D01*
X103615899Y-53877208D01*
X103396014Y-53726967D01*
X103135000Y-53674110D01*
X103018000Y-53674110D01*
X103018000Y-48560890D01*
X103135000Y-48560890D01*
X103378840Y-48515008D01*
X103602792Y-48370899D01*
X103744716Y-48163186D01*
X103891312Y-48310038D01*
X104463735Y-48547729D01*
X105083546Y-48548270D01*
X105656383Y-48311578D01*
X106095038Y-47873688D01*
X106332729Y-47301265D01*
X106333270Y-46681454D01*
X106096578Y-46108617D01*
X105658688Y-45669962D01*
X105086265Y-45432271D01*
X104466454Y-45431730D01*
X103893617Y-45668422D01*
X103742627Y-45819149D01*
X103615899Y-45622208D01*
X103396014Y-45471967D01*
X103135000Y-45419110D01*
X103018000Y-45419110D01*
X103018000Y-40305890D01*
X103135000Y-40305890D01*
X103378840Y-40260008D01*
X103602792Y-40115899D01*
X103744716Y-39908186D01*
X103891312Y-40055038D01*
X104463735Y-40292729D01*
X105083546Y-40293270D01*
X105656383Y-40056578D01*
X106095038Y-39618688D01*
X106332729Y-39046265D01*
X106333270Y-38426454D01*
X106096578Y-37853617D01*
X105658688Y-37414962D01*
X105086265Y-37177271D01*
X104466454Y-37176730D01*
X103893617Y-37413422D01*
X103742627Y-37564149D01*
X103615899Y-37367208D01*
X103396014Y-37216967D01*
X103135000Y-37164110D01*
X101335000Y-37164110D01*
X101091160Y-37209992D01*
X100867208Y-37354101D01*
X100716967Y-37573986D01*
X100664110Y-37835000D01*
X100664110Y-39635000D01*
X100709992Y-39878840D01*
X100854101Y-40102792D01*
X101073986Y-40253033D01*
X101335000Y-40305890D01*
X101452000Y-40305890D01*
X101452000Y-45419110D01*
X101335000Y-45419110D01*
X101091160Y-45464992D01*
X100867208Y-45609101D01*
X100716967Y-45828986D01*
X100664110Y-46090000D01*
X100664110Y-47890000D01*
X100709992Y-48133840D01*
X100854101Y-48357792D01*
X101073986Y-48508033D01*
X101335000Y-48560890D01*
X101452000Y-48560890D01*
X101452000Y-53674110D01*
X101335000Y-53674110D01*
X101091160Y-53719992D01*
X100867208Y-53864101D01*
X100716967Y-54083986D01*
X100664110Y-54345000D01*
X100664110Y-56145000D01*
X100709992Y-56388840D01*
X100854101Y-56612792D01*
X101073986Y-56763033D01*
X101335000Y-56815890D01*
X101452000Y-56815890D01*
X101452000Y-61929110D01*
X101335000Y-61929110D01*
X101091160Y-61974992D01*
X100867208Y-62119101D01*
X100716967Y-62338986D01*
X100664110Y-62600000D01*
X100664110Y-64400000D01*
X100709992Y-64643840D01*
X100854101Y-64867792D01*
X101073986Y-65018033D01*
X101335000Y-65070890D01*
X101452000Y-65070890D01*
X101452000Y-70184110D01*
X101335000Y-70184110D01*
X101091160Y-70229992D01*
X100867208Y-70374101D01*
X100716967Y-70593986D01*
X100664110Y-70855000D01*
X100664110Y-72218560D01*
X98735670Y-74147000D01*
X89224329Y-74147000D01*
X88413000Y-73335670D01*
X88413000Y-73280934D01*
X88635000Y-73325890D01*
X90435000Y-73325890D01*
X90678840Y-73280008D01*
X90902792Y-73135899D01*
X91044716Y-72928186D01*
X91191312Y-73075038D01*
X91763735Y-73312729D01*
X92383546Y-73313270D01*
X92956383Y-73076578D01*
X93395038Y-72638688D01*
X93632729Y-72066265D01*
X93632891Y-71880221D01*
X94061333Y-72308662D01*
X94061335Y-72308665D01*
X94183062Y-72390000D01*
X94314110Y-72477563D01*
X94314110Y-72655000D01*
X94359992Y-72898840D01*
X94504101Y-73122792D01*
X94723986Y-73273033D01*
X94985000Y-73325890D01*
X96785000Y-73325890D01*
X97028840Y-73280008D01*
X97252792Y-73135899D01*
X97394716Y-72928186D01*
X97541312Y-73075038D01*
X98113735Y-73312729D01*
X98733546Y-73313270D01*
X99306383Y-73076578D01*
X99745038Y-72638688D01*
X99982729Y-72066265D01*
X99983270Y-71446454D01*
X99746578Y-70873617D01*
X99308688Y-70434962D01*
X98736265Y-70197271D01*
X98116454Y-70196730D01*
X97543617Y-70433422D01*
X97392627Y-70584149D01*
X97265899Y-70387208D01*
X97046014Y-70236967D01*
X96785000Y-70184110D01*
X96668000Y-70184110D01*
X96668000Y-65070890D01*
X96785000Y-65070890D01*
X97028840Y-65025008D01*
X97252792Y-64880899D01*
X97394716Y-64673186D01*
X97541312Y-64820038D01*
X98113735Y-65057729D01*
X98733546Y-65058270D01*
X99306383Y-64821578D01*
X99745038Y-64383688D01*
X99982729Y-63811265D01*
X99983270Y-63191454D01*
X99746578Y-62618617D01*
X99308688Y-62179962D01*
X98736265Y-61942271D01*
X98116454Y-61941730D01*
X97543617Y-62178422D01*
X97392627Y-62329149D01*
X97265899Y-62132208D01*
X97046014Y-61981967D01*
X96785000Y-61929110D01*
X96668000Y-61929110D01*
X96668000Y-56815890D01*
X96785000Y-56815890D01*
X97028840Y-56770008D01*
X97252792Y-56625899D01*
X97394716Y-56418186D01*
X97541312Y-56565038D01*
X98113735Y-56802729D01*
X98733546Y-56803270D01*
X99306383Y-56566578D01*
X99745038Y-56128688D01*
X99982729Y-55556265D01*
X99983270Y-54936454D01*
X99746578Y-54363617D01*
X99308688Y-53924962D01*
X98736265Y-53687271D01*
X98116454Y-53686730D01*
X97543617Y-53923422D01*
X97392627Y-54074149D01*
X97265899Y-53877208D01*
X97046014Y-53726967D01*
X96785000Y-53674110D01*
X96668000Y-53674110D01*
X96668000Y-48560890D01*
X96785000Y-48560890D01*
X97028840Y-48515008D01*
X97252792Y-48370899D01*
X97394716Y-48163186D01*
X97541312Y-48310038D01*
X98113735Y-48547729D01*
X98733546Y-48548270D01*
X99306383Y-48311578D01*
X99745038Y-47873688D01*
X99982729Y-47301265D01*
X99983270Y-46681454D01*
X99746578Y-46108617D01*
X99308688Y-45669962D01*
X98736265Y-45432271D01*
X98116454Y-45431730D01*
X97543617Y-45668422D01*
X97392627Y-45819149D01*
X97265899Y-45622208D01*
X97046014Y-45471967D01*
X96785000Y-45419110D01*
X96668000Y-45419110D01*
X96668000Y-40305890D01*
X96785000Y-40305890D01*
X97028840Y-40260008D01*
X97252792Y-40115899D01*
X97394716Y-39908186D01*
X97541312Y-40055038D01*
X98113735Y-40292729D01*
X98733546Y-40293270D01*
X99306383Y-40056578D01*
X99745038Y-39618688D01*
X99982729Y-39046265D01*
X99983270Y-38426454D01*
X99746578Y-37853617D01*
X99308688Y-37414962D01*
X98736265Y-37177271D01*
X98116454Y-37176730D01*
X97543617Y-37413422D01*
X97392627Y-37564149D01*
X97265899Y-37367208D01*
X97046014Y-37216967D01*
X96785000Y-37164110D01*
X96056439Y-37164110D01*
X94533665Y-35641335D01*
X94279641Y-35471602D01*
X93980000Y-35411999D01*
X93979995Y-35412000D01*
X85725005Y-35412000D01*
X85725000Y-35411999D01*
X85425359Y-35471602D01*
X85171335Y-35641335D01*
X85171333Y-35641338D01*
X81590670Y-39222000D01*
X70485000Y-39222000D01*
X70185358Y-39281602D01*
X70174788Y-39288665D01*
X69931335Y-39451335D01*
X69931333Y-39451338D01*
X68890670Y-40492000D01*
X66441801Y-40492000D01*
X66510744Y-40445934D01*
X66840585Y-39952291D01*
X66956410Y-39370000D01*
X66840585Y-38787709D01*
X66510744Y-38294066D01*
X66220192Y-38099926D01*
X66286853Y-38070010D01*
X66694257Y-37638149D01*
X66888083Y-37170194D01*
X66758109Y-36934000D01*
X65509000Y-36934000D01*
X65509000Y-36954000D01*
X65301000Y-36954000D01*
X65301000Y-36934000D01*
X65281000Y-36934000D01*
X65281000Y-36726000D01*
X65301000Y-36726000D01*
X65301000Y-35476451D01*
X65509000Y-35476451D01*
X65509000Y-36726000D01*
X66758109Y-36726000D01*
X66888083Y-36489806D01*
X66694257Y-36021851D01*
X66286853Y-35589990D01*
X65745195Y-35346910D01*
X65509000Y-35476451D01*
X65301000Y-35476451D01*
X65064805Y-35346910D01*
X64523147Y-35589990D01*
X64135604Y-36000797D01*
X63970744Y-35754066D01*
X63477101Y-35424225D01*
X62894810Y-35308400D01*
X62835190Y-35308400D01*
X62252899Y-35424225D01*
X61759256Y-35754066D01*
X61595000Y-35999893D01*
X61430744Y-35754066D01*
X60937101Y-35424225D01*
X60354810Y-35308400D01*
X60295190Y-35308400D01*
X59712899Y-35424225D01*
X59219256Y-35754066D01*
X58889415Y-36247709D01*
X58773590Y-36830000D01*
X58889415Y-37412291D01*
X59207278Y-37888008D01*
X58993608Y-38025501D01*
X58843367Y-38245386D01*
X58790510Y-38506400D01*
X58790510Y-40233600D01*
X58836392Y-40477440D01*
X58980501Y-40701392D01*
X59200386Y-40851633D01*
X59461400Y-40904490D01*
X60752160Y-40904490D01*
X63581333Y-43733662D01*
X63581335Y-43733665D01*
X63835359Y-43903398D01*
X64135000Y-43963001D01*
X64135005Y-43963000D01*
X78740000Y-43963000D01*
X78815240Y-43948034D01*
X78891953Y-43948114D01*
X78963605Y-43918522D01*
X79039641Y-43903398D01*
X79103429Y-43860777D01*
X79174330Y-43831495D01*
X80619605Y-42867978D01*
X80834722Y-42868166D01*
X81186954Y-42722626D01*
X81456679Y-42453372D01*
X81602833Y-42101394D01*
X81603166Y-41720278D01*
X81457626Y-41368046D01*
X81188372Y-41098321D01*
X80836394Y-40952167D01*
X80455278Y-40951834D01*
X80103046Y-41097374D01*
X79833321Y-41366628D01*
X79750958Y-41564979D01*
X78502928Y-42397000D01*
X64459329Y-42397000D01*
X64116686Y-42054357D01*
X64135000Y-42058000D01*
X69214995Y-42058000D01*
X69215000Y-42058001D01*
X69514641Y-41998398D01*
X69768665Y-41828665D01*
X70809329Y-40788000D01*
X81914995Y-40788000D01*
X81915000Y-40788001D01*
X82214641Y-40728398D01*
X82468665Y-40558665D01*
X83183180Y-39844150D01*
X83304345Y-40137391D01*
X83685601Y-40519314D01*
X83976345Y-40640041D01*
X83687609Y-40759345D01*
X83305686Y-41140601D01*
X83098736Y-41638992D01*
X83098265Y-42178641D01*
X83304345Y-42677391D01*
X83685601Y-43059314D01*
X84183992Y-43266264D01*
X84723641Y-43266735D01*
X85222391Y-43060655D01*
X85604314Y-42679399D01*
X85811264Y-42181008D01*
X85811735Y-41641359D01*
X85605655Y-41142609D01*
X85224399Y-40760686D01*
X84933655Y-40639959D01*
X85222391Y-40520655D01*
X85604314Y-40139399D01*
X85811264Y-39641008D01*
X85811735Y-39101359D01*
X85605655Y-38602609D01*
X85224399Y-38220686D01*
X84929215Y-38098115D01*
X86049329Y-36978000D01*
X93655670Y-36978000D01*
X94347548Y-37669878D01*
X94314110Y-37835000D01*
X94314110Y-39635000D01*
X94359992Y-39878840D01*
X94504101Y-40102792D01*
X94723986Y-40253033D01*
X94985000Y-40305890D01*
X95102000Y-40305890D01*
X95102000Y-45419110D01*
X94985000Y-45419110D01*
X94741160Y-45464992D01*
X94517208Y-45609101D01*
X94366967Y-45828986D01*
X94314110Y-46090000D01*
X94314110Y-47890000D01*
X94359992Y-48133840D01*
X94504101Y-48357792D01*
X94723986Y-48508033D01*
X94985000Y-48560890D01*
X95102000Y-48560890D01*
X95102000Y-53674110D01*
X94985000Y-53674110D01*
X94741160Y-53719992D01*
X94517208Y-53864101D01*
X94366967Y-54083986D01*
X94314110Y-54345000D01*
X94314110Y-56145000D01*
X94359992Y-56388840D01*
X94504101Y-56612792D01*
X94723986Y-56763033D01*
X94985000Y-56815890D01*
X95102000Y-56815890D01*
X95102000Y-61929110D01*
X94985000Y-61929110D01*
X94741160Y-61974992D01*
X94517208Y-62119101D01*
X94366967Y-62338986D01*
X94314110Y-62600000D01*
X94314110Y-64400000D01*
X94359992Y-64643840D01*
X94504101Y-64867792D01*
X94723986Y-65018033D01*
X94985000Y-65070890D01*
X95102000Y-65070890D01*
X95102000Y-70184110D01*
X94985000Y-70184110D01*
X94763000Y-70225882D01*
X94763000Y-69152001D01*
X94791679Y-69123372D01*
X94937833Y-68771394D01*
X94938166Y-68390278D01*
X94792626Y-68038046D01*
X94523372Y-67768321D01*
X94171394Y-67622167D01*
X93790278Y-67621834D01*
X93438046Y-67767374D01*
X93168321Y-68036628D01*
X93022167Y-68388606D01*
X93021834Y-68769722D01*
X93167374Y-69121954D01*
X93197000Y-69151632D01*
X93197000Y-70673690D01*
X92958688Y-70434962D01*
X92386265Y-70197271D01*
X91766454Y-70196730D01*
X91193617Y-70433422D01*
X91042627Y-70584149D01*
X90915899Y-70387208D01*
X90696014Y-70236967D01*
X90435000Y-70184110D01*
X90318000Y-70184110D01*
X90318000Y-65070890D01*
X90435000Y-65070890D01*
X90678840Y-65025008D01*
X90902792Y-64880899D01*
X91044716Y-64673186D01*
X91191312Y-64820038D01*
X91763735Y-65057729D01*
X92383546Y-65058270D01*
X92956383Y-64821578D01*
X93395038Y-64383688D01*
X93632729Y-63811265D01*
X93633270Y-63191454D01*
X93396578Y-62618617D01*
X92958688Y-62179962D01*
X92386265Y-61942271D01*
X91766454Y-61941730D01*
X91193617Y-62178422D01*
X91042627Y-62329149D01*
X90915899Y-62132208D01*
X90696014Y-61981967D01*
X90435000Y-61929110D01*
X90318000Y-61929110D01*
X90318000Y-56815890D01*
X90435000Y-56815890D01*
X90678840Y-56770008D01*
X90902792Y-56625899D01*
X91044716Y-56418186D01*
X91191312Y-56565038D01*
X91763735Y-56802729D01*
X92383546Y-56803270D01*
X92956383Y-56566578D01*
X93395038Y-56128688D01*
X93632729Y-55556265D01*
X93633270Y-54936454D01*
X93396578Y-54363617D01*
X92958688Y-53924962D01*
X92386265Y-53687271D01*
X91766454Y-53686730D01*
X91193617Y-53923422D01*
X91042627Y-54074149D01*
X90915899Y-53877208D01*
X90696014Y-53726967D01*
X90435000Y-53674110D01*
X90318000Y-53674110D01*
X90318000Y-48560890D01*
X90435000Y-48560890D01*
X90678840Y-48515008D01*
X90902792Y-48370899D01*
X91044716Y-48163186D01*
X91191312Y-48310038D01*
X91763735Y-48547729D01*
X92383546Y-48548270D01*
X92956383Y-48311578D01*
X93395038Y-47873688D01*
X93632729Y-47301265D01*
X93633270Y-46681454D01*
X93396578Y-46108617D01*
X92958688Y-45669962D01*
X92386265Y-45432271D01*
X91766454Y-45431730D01*
X91193617Y-45668422D01*
X91042627Y-45819149D01*
X90915899Y-45622208D01*
X90696014Y-45471967D01*
X90435000Y-45419110D01*
X90318000Y-45419110D01*
X90318000Y-40305890D01*
X90435000Y-40305890D01*
X90678840Y-40260008D01*
X90902792Y-40115899D01*
X91044716Y-39908186D01*
X91191312Y-40055038D01*
X91763735Y-40292729D01*
X92383546Y-40293270D01*
X92956383Y-40056578D01*
X93395038Y-39618688D01*
X93632729Y-39046265D01*
X93633270Y-38426454D01*
X93396578Y-37853617D01*
X92958688Y-37414962D01*
X92386265Y-37177271D01*
X91766454Y-37176730D01*
X91193617Y-37413422D01*
X91042627Y-37564149D01*
X90915899Y-37367208D01*
X90696014Y-37216967D01*
X90435000Y-37164110D01*
X88635000Y-37164110D01*
X88391160Y-37209992D01*
X88167208Y-37354101D01*
X88016967Y-37573986D01*
X87964110Y-37835000D01*
X87964110Y-39635000D01*
X88009992Y-39878840D01*
X88154101Y-40102792D01*
X88373986Y-40253033D01*
X88635000Y-40305890D01*
X88752000Y-40305890D01*
X88752000Y-45419110D01*
X88635000Y-45419110D01*
X88391160Y-45464992D01*
X88167208Y-45609101D01*
X88016967Y-45828986D01*
X87964110Y-46090000D01*
X87964110Y-47890000D01*
X88009992Y-48133840D01*
X88154101Y-48357792D01*
X88373986Y-48508033D01*
X88635000Y-48560890D01*
X88752000Y-48560890D01*
X88752000Y-53674110D01*
X88635000Y-53674110D01*
X88391160Y-53719992D01*
X88167208Y-53864101D01*
X88016967Y-54083986D01*
X87964110Y-54345000D01*
X87964110Y-55708560D01*
X85811434Y-57861236D01*
X85811735Y-57516359D01*
X85605655Y-57017609D01*
X85224399Y-56635686D01*
X84933655Y-56514959D01*
X85222391Y-56395655D01*
X85604314Y-56014399D01*
X85811264Y-55516008D01*
X85811735Y-54976359D01*
X85605655Y-54477609D01*
X85224399Y-54095686D01*
X84726008Y-53888736D01*
X84186359Y-53888265D01*
X83687609Y-54094345D01*
X83305686Y-54475601D01*
X83098736Y-54973992D01*
X83098265Y-55513641D01*
X83304345Y-56012391D01*
X83685601Y-56394314D01*
X83976345Y-56515041D01*
X83687609Y-56634345D01*
X83305686Y-57015601D01*
X83098736Y-57513992D01*
X83098265Y-58053641D01*
X83304345Y-58552391D01*
X83685601Y-58934314D01*
X84183992Y-59141264D01*
X84531103Y-59141567D01*
X84130670Y-59542000D01*
X83509329Y-59542000D01*
X81833665Y-57866335D01*
X81579641Y-57696602D01*
X81280000Y-57636999D01*
X81279995Y-57637000D01*
X80600208Y-57637000D01*
X80434526Y-57389038D01*
X80076779Y-57150000D01*
X80434526Y-56910962D01*
X80750580Y-56437952D01*
X80861564Y-55880000D01*
X80750580Y-55322048D01*
X80434526Y-54849038D01*
X80076779Y-54610000D01*
X80434526Y-54370962D01*
X80750580Y-53897952D01*
X80861564Y-53340000D01*
X80750580Y-52782048D01*
X80434526Y-52309038D01*
X80076779Y-52070000D01*
X80434526Y-51830962D01*
X80750580Y-51357952D01*
X80861564Y-50800000D01*
X80750580Y-50242048D01*
X80434526Y-49769038D01*
X80076779Y-49530000D01*
X80434526Y-49290962D01*
X80750580Y-48817952D01*
X80861564Y-48260000D01*
X80750580Y-47702048D01*
X80454307Y-47258641D01*
X83098265Y-47258641D01*
X83304345Y-47757391D01*
X83685601Y-48139314D01*
X83976345Y-48260041D01*
X83687609Y-48379345D01*
X83305686Y-48760601D01*
X83098736Y-49258992D01*
X83098265Y-49798641D01*
X83304345Y-50297391D01*
X83685601Y-50679314D01*
X84183992Y-50886264D01*
X84723641Y-50886735D01*
X85222391Y-50680655D01*
X85604314Y-50299399D01*
X85811264Y-49801008D01*
X85811735Y-49261359D01*
X85605655Y-48762609D01*
X85224399Y-48380686D01*
X84933655Y-48259959D01*
X85222391Y-48140655D01*
X85604314Y-47759399D01*
X85811264Y-47261008D01*
X85811735Y-46721359D01*
X85605655Y-46222609D01*
X85224399Y-45840686D01*
X84726008Y-45633736D01*
X84186359Y-45633265D01*
X83687609Y-45839345D01*
X83305686Y-46220601D01*
X83098736Y-46718992D01*
X83098265Y-47258641D01*
X80454307Y-47258641D01*
X80434526Y-47229038D01*
X80076779Y-46990000D01*
X80434526Y-46750962D01*
X80750580Y-46277952D01*
X80861564Y-45720000D01*
X80750580Y-45162048D01*
X80434526Y-44689038D01*
X79961516Y-44372984D01*
X79403564Y-44262000D01*
X79346436Y-44262000D01*
X78788484Y-44372984D01*
X78315474Y-44689038D01*
X77999420Y-45162048D01*
X77888436Y-45720000D01*
X77999420Y-46277952D01*
X78315474Y-46750962D01*
X78673221Y-46990000D01*
X78315474Y-47229038D01*
X77999420Y-47702048D01*
X77888436Y-48260000D01*
X77999420Y-48817952D01*
X78315474Y-49290962D01*
X78673221Y-49530000D01*
X78315474Y-49769038D01*
X77999420Y-50242048D01*
X77888436Y-50800000D01*
X77999420Y-51357952D01*
X78315474Y-51830962D01*
X78673221Y-52070000D01*
X78315474Y-52309038D01*
X77999420Y-52782048D01*
X77888436Y-53340000D01*
X77999420Y-53897952D01*
X78315474Y-54370962D01*
X78673221Y-54610000D01*
X78315474Y-54849038D01*
X77999420Y-55322048D01*
X77888436Y-55880000D01*
X77999420Y-56437952D01*
X78315474Y-56910962D01*
X78673221Y-57150000D01*
X78315474Y-57389038D01*
X77999420Y-57862048D01*
X77888436Y-58420000D01*
X77999420Y-58977952D01*
X78315474Y-59450962D01*
X78673221Y-59690000D01*
X78315474Y-59929038D01*
X77999420Y-60402048D01*
X77888436Y-60960000D01*
X77999420Y-61517952D01*
X78315474Y-61990962D01*
X78673221Y-62230000D01*
X78315474Y-62469038D01*
X77999420Y-62942048D01*
X77888436Y-63500000D01*
X77999420Y-64057952D01*
X78315474Y-64530962D01*
X78673221Y-64770000D01*
X78315474Y-65009038D01*
X77999420Y-65482048D01*
X77888436Y-66040000D01*
X77999420Y-66597952D01*
X78315474Y-67070962D01*
X78673221Y-67310000D01*
X78315474Y-67549038D01*
X77999420Y-68022048D01*
X77888436Y-68580000D01*
X77999420Y-69137952D01*
X78315474Y-69610962D01*
X78673221Y-69850000D01*
X78315474Y-70089038D01*
X77999420Y-70562048D01*
X77888436Y-71120000D01*
X77999420Y-71677952D01*
X78315474Y-72150962D01*
X78673221Y-72390000D01*
X78315474Y-72629038D01*
X78253000Y-72722537D01*
X78253000Y-72390000D01*
X78193398Y-72090359D01*
X78193398Y-72090358D01*
X78125412Y-71988611D01*
X78023665Y-71836335D01*
X78023662Y-71836333D01*
X76753665Y-70566335D01*
X76499641Y-70396602D01*
X76200000Y-70336999D01*
X76199995Y-70337000D01*
X72980208Y-70337000D01*
X72814526Y-70089038D01*
X72456779Y-69850000D01*
X72814526Y-69610962D01*
X73130580Y-69137952D01*
X73241564Y-68580000D01*
X73130580Y-68022048D01*
X72814526Y-67549038D01*
X72456779Y-67310000D01*
X72814526Y-67070962D01*
X73130580Y-66597952D01*
X73241564Y-66040000D01*
X73130580Y-65482048D01*
X72814526Y-65009038D01*
X72440751Y-64759291D01*
X72603541Y-64685650D01*
X72992678Y-64270675D01*
X73175112Y-63830220D01*
X73044312Y-63604000D01*
X71859000Y-63604000D01*
X71859000Y-63624000D01*
X71651000Y-63624000D01*
X71651000Y-63604000D01*
X70465688Y-63604000D01*
X70334888Y-63830220D01*
X70517322Y-64270675D01*
X70906459Y-64685650D01*
X71069249Y-64759291D01*
X70695474Y-65009038D01*
X70379420Y-65482048D01*
X70268436Y-66040000D01*
X70379420Y-66597952D01*
X70695474Y-67070962D01*
X71053221Y-67310000D01*
X70695474Y-67549038D01*
X70379420Y-68022048D01*
X70268436Y-68580000D01*
X70379420Y-69137952D01*
X70695474Y-69610962D01*
X71053221Y-69850000D01*
X70695474Y-70089038D01*
X70379420Y-70562048D01*
X70268436Y-71120000D01*
X70379420Y-71677952D01*
X70695474Y-72150962D01*
X71053221Y-72390000D01*
X70695474Y-72629038D01*
X70379420Y-73102048D01*
X70268436Y-73660000D01*
X70379420Y-74217952D01*
X70695474Y-74690962D01*
X71053221Y-74930000D01*
X70695474Y-75169038D01*
X70379420Y-75642048D01*
X70268436Y-76200000D01*
X70379420Y-76757952D01*
X70695474Y-77230962D01*
X71053221Y-77470000D01*
X70695474Y-77709038D01*
X70379420Y-78182048D01*
X70268436Y-78740000D01*
X70379420Y-79297952D01*
X70695474Y-79770962D01*
X70972000Y-79955730D01*
X70972000Y-81279995D01*
X70971999Y-81280000D01*
X71031602Y-81579641D01*
X71190200Y-81817000D01*
X55343000Y-81817000D01*
X55343000Y-74848500D01*
X56647000Y-74848500D01*
X56647000Y-76460884D01*
X56747174Y-76702727D01*
X56932273Y-76887825D01*
X57174115Y-76988000D01*
X58786500Y-76988000D01*
X58951000Y-76823500D01*
X58951000Y-74684000D01*
X59159000Y-74684000D01*
X59159000Y-76823500D01*
X59323500Y-76988000D01*
X60935885Y-76988000D01*
X61177727Y-76887825D01*
X61362826Y-76702727D01*
X61463000Y-76460884D01*
X61463000Y-74848500D01*
X61298500Y-74684000D01*
X59159000Y-74684000D01*
X58951000Y-74684000D01*
X56811500Y-74684000D01*
X56647000Y-74848500D01*
X55343000Y-74848500D01*
X55343000Y-72699116D01*
X56647000Y-72699116D01*
X56647000Y-74311500D01*
X56811500Y-74476000D01*
X58951000Y-74476000D01*
X58951000Y-72336500D01*
X59159000Y-72336500D01*
X59159000Y-74476000D01*
X61298500Y-74476000D01*
X61463000Y-74311500D01*
X61463000Y-73718553D01*
X61632273Y-73887825D01*
X61874115Y-73988000D01*
X63486500Y-73988000D01*
X63651000Y-73823500D01*
X63651000Y-71684000D01*
X63859000Y-71684000D01*
X63859000Y-73823500D01*
X64023500Y-73988000D01*
X65635885Y-73988000D01*
X65877727Y-73887825D01*
X66062826Y-73702727D01*
X66163000Y-73460884D01*
X66163000Y-71848500D01*
X65998500Y-71684000D01*
X63859000Y-71684000D01*
X63651000Y-71684000D01*
X61511500Y-71684000D01*
X61347000Y-71848500D01*
X61347000Y-72441447D01*
X61177727Y-72272175D01*
X60935885Y-72172000D01*
X59323500Y-72172000D01*
X59159000Y-72336500D01*
X58951000Y-72336500D01*
X58786500Y-72172000D01*
X57174115Y-72172000D01*
X56932273Y-72272175D01*
X56747174Y-72457273D01*
X56647000Y-72699116D01*
X55343000Y-72699116D01*
X55343000Y-66830000D01*
X56634110Y-66830000D01*
X56634110Y-70330000D01*
X56679992Y-70573840D01*
X56824101Y-70797792D01*
X57043986Y-70948033D01*
X57305000Y-71000890D01*
X60805000Y-71000890D01*
X61048840Y-70955008D01*
X61272792Y-70810899D01*
X61347000Y-70702292D01*
X61347000Y-71311500D01*
X61511500Y-71476000D01*
X63651000Y-71476000D01*
X63651000Y-69336500D01*
X63859000Y-69336500D01*
X63859000Y-71476000D01*
X65998500Y-71476000D01*
X66163000Y-71311500D01*
X66163000Y-69699116D01*
X66062826Y-69457273D01*
X65877727Y-69272175D01*
X65635885Y-69172000D01*
X64023500Y-69172000D01*
X63859000Y-69336500D01*
X63651000Y-69336500D01*
X63486500Y-69172000D01*
X61874115Y-69172000D01*
X61632273Y-69272175D01*
X61475890Y-69428557D01*
X61475890Y-66830000D01*
X61430008Y-66586160D01*
X61285899Y-66362208D01*
X61066014Y-66211967D01*
X60805000Y-66159110D01*
X57305000Y-66159110D01*
X57061160Y-66204992D01*
X56837208Y-66349101D01*
X56686967Y-66568986D01*
X56634110Y-66830000D01*
X55343000Y-66830000D01*
X55343000Y-60623644D01*
X55641739Y-60623644D01*
X55870835Y-61178097D01*
X56294672Y-61602674D01*
X56367000Y-61632707D01*
X56367000Y-63016871D01*
X56296903Y-63045835D01*
X55872326Y-63469672D01*
X55642263Y-64023724D01*
X55641739Y-64623644D01*
X55870835Y-65178097D01*
X56294672Y-65602674D01*
X56848724Y-65832737D01*
X57448644Y-65833261D01*
X58003097Y-65604165D01*
X58427674Y-65180328D01*
X58657737Y-64626276D01*
X58658261Y-64026356D01*
X58429165Y-63471903D01*
X58005328Y-63047326D01*
X57933000Y-63017293D01*
X57933000Y-61633129D01*
X58003097Y-61604165D01*
X58427674Y-61180328D01*
X58657737Y-60626276D01*
X58657739Y-60623644D01*
X61641739Y-60623644D01*
X61870835Y-61178097D01*
X62294672Y-61602674D01*
X62367000Y-61632707D01*
X62367000Y-63016871D01*
X62296903Y-63045835D01*
X61872326Y-63469672D01*
X61642263Y-64023724D01*
X61641739Y-64623644D01*
X61870835Y-65178097D01*
X62294672Y-65602674D01*
X62848724Y-65832737D01*
X63448644Y-65833261D01*
X64003097Y-65604165D01*
X64427674Y-65180328D01*
X64460828Y-65100483D01*
X66451596Y-65100483D01*
X66522498Y-65355839D01*
X67064946Y-65561228D01*
X67644701Y-65543397D01*
X68097502Y-65355839D01*
X68168404Y-65100483D01*
X67310000Y-64242078D01*
X66451596Y-65100483D01*
X64460828Y-65100483D01*
X64657737Y-64626276D01*
X64658261Y-64026356D01*
X64585370Y-63849946D01*
X65843772Y-63849946D01*
X65861603Y-64429701D01*
X66049161Y-64882502D01*
X66304517Y-64953404D01*
X67162922Y-64095000D01*
X67457078Y-64095000D01*
X68315483Y-64953404D01*
X68570839Y-64882502D01*
X68776228Y-64340054D01*
X68758397Y-63760299D01*
X68570839Y-63307498D01*
X68315483Y-63236596D01*
X67457078Y-64095000D01*
X67162922Y-64095000D01*
X66304517Y-63236596D01*
X66049161Y-63307498D01*
X65843772Y-63849946D01*
X64585370Y-63849946D01*
X64429165Y-63471903D01*
X64005328Y-63047326D01*
X63933000Y-63017293D01*
X63933000Y-61883742D01*
X65851747Y-61883742D01*
X66073247Y-62419812D01*
X66483031Y-62830312D01*
X66519376Y-62845404D01*
X66451596Y-63089517D01*
X67310000Y-63947922D01*
X68168404Y-63089517D01*
X68100742Y-62845830D01*
X68134812Y-62831753D01*
X68545312Y-62421969D01*
X68767746Y-61886286D01*
X68768253Y-61306258D01*
X68546753Y-60770188D01*
X68136969Y-60359688D01*
X67601286Y-60137254D01*
X67021258Y-60136747D01*
X66485188Y-60358247D01*
X66074688Y-60768031D01*
X65852254Y-61303714D01*
X65851747Y-61883742D01*
X63933000Y-61883742D01*
X63933000Y-61633129D01*
X64003097Y-61604165D01*
X64427674Y-61180328D01*
X64657737Y-60626276D01*
X64658261Y-60026356D01*
X64429165Y-59471903D01*
X64005328Y-59047326D01*
X63451276Y-58817263D01*
X62851356Y-58816739D01*
X62296903Y-59045835D01*
X61872326Y-59469672D01*
X61642263Y-60023724D01*
X61641739Y-60623644D01*
X58657739Y-60623644D01*
X58658261Y-60026356D01*
X58429165Y-59471903D01*
X58005328Y-59047326D01*
X57451276Y-58817263D01*
X56851356Y-58816739D01*
X56296903Y-59045835D01*
X55872326Y-59469672D01*
X55642263Y-60023724D01*
X55641739Y-60623644D01*
X55343000Y-60623644D01*
X55343000Y-57447058D01*
X66525020Y-57447058D01*
X66583489Y-57691893D01*
X67089169Y-57880331D01*
X67628468Y-57860910D01*
X68036511Y-57691893D01*
X68094980Y-57447058D01*
X67310000Y-56662078D01*
X66525020Y-57447058D01*
X55343000Y-57447058D01*
X55343000Y-56294169D01*
X65944669Y-56294169D01*
X65964090Y-56833468D01*
X66133107Y-57241511D01*
X66377942Y-57299980D01*
X67162922Y-56515000D01*
X67457078Y-56515000D01*
X68242058Y-57299980D01*
X68486893Y-57241511D01*
X68675331Y-56735831D01*
X68655910Y-56196532D01*
X68486893Y-55788489D01*
X68242058Y-55730020D01*
X67457078Y-56515000D01*
X67162922Y-56515000D01*
X66377942Y-55730020D01*
X66133107Y-55788489D01*
X65944669Y-56294169D01*
X55343000Y-56294169D01*
X55343000Y-54243641D01*
X65953265Y-54243641D01*
X66159345Y-54742391D01*
X66540601Y-55124314D01*
X66819771Y-55240236D01*
X66583489Y-55338107D01*
X66525020Y-55582942D01*
X67310000Y-56367922D01*
X68094980Y-55582942D01*
X68036511Y-55338107D01*
X67787654Y-55245372D01*
X68077391Y-55125655D01*
X68459314Y-54744399D01*
X68666264Y-54246008D01*
X68666735Y-53706359D01*
X68460655Y-53207609D01*
X68079399Y-52825686D01*
X67581008Y-52618736D01*
X67041359Y-52618265D01*
X66542609Y-52824345D01*
X66160686Y-53205601D01*
X65953736Y-53703992D01*
X65953265Y-54243641D01*
X55343000Y-54243641D01*
X55343000Y-51950449D01*
X55659672Y-52267674D01*
X56213724Y-52497737D01*
X56813644Y-52498261D01*
X57368097Y-52269165D01*
X57792674Y-51845328D01*
X58022737Y-51291276D01*
X58022739Y-51288644D01*
X61006739Y-51288644D01*
X61235835Y-51843097D01*
X61659672Y-52267674D01*
X62213724Y-52497737D01*
X62813644Y-52498261D01*
X63368097Y-52269165D01*
X63792674Y-51845328D01*
X64022737Y-51291276D01*
X64022931Y-51068641D01*
X65953265Y-51068641D01*
X66159345Y-51567391D01*
X66540601Y-51949314D01*
X67038992Y-52156264D01*
X67578641Y-52156735D01*
X68077391Y-51950655D01*
X68459314Y-51569399D01*
X68666264Y-51071008D01*
X68666735Y-50531359D01*
X68460655Y-50032609D01*
X68079399Y-49650686D01*
X67800229Y-49534764D01*
X68036511Y-49436893D01*
X68094980Y-49192058D01*
X67310000Y-48407078D01*
X66525020Y-49192058D01*
X66583489Y-49436893D01*
X66832346Y-49529628D01*
X66542609Y-49649345D01*
X66160686Y-50030601D01*
X65953736Y-50528992D01*
X65953265Y-51068641D01*
X64022931Y-51068641D01*
X64023261Y-50691356D01*
X63794165Y-50136903D01*
X63370328Y-49712326D01*
X62816276Y-49482263D01*
X62216356Y-49481739D01*
X61661903Y-49710835D01*
X61237326Y-50134672D01*
X61007263Y-50688724D01*
X61006739Y-51288644D01*
X58022739Y-51288644D01*
X58023261Y-50691356D01*
X57794165Y-50136903D01*
X57370328Y-49712326D01*
X56816276Y-49482263D01*
X56216356Y-49481739D01*
X55661903Y-49710835D01*
X55343000Y-50029182D01*
X55343000Y-47950449D01*
X55659672Y-48267674D01*
X56213724Y-48497737D01*
X56813644Y-48498261D01*
X57368097Y-48269165D01*
X57792674Y-47845328D01*
X58022737Y-47291276D01*
X58022739Y-47288644D01*
X61006739Y-47288644D01*
X61235835Y-47843097D01*
X61659672Y-48267674D01*
X62213724Y-48497737D01*
X62813644Y-48498261D01*
X63368097Y-48269165D01*
X63598494Y-48039169D01*
X65944669Y-48039169D01*
X65964090Y-48578468D01*
X66133107Y-48986511D01*
X66377942Y-49044980D01*
X67162922Y-48260000D01*
X67457078Y-48260000D01*
X68242058Y-49044980D01*
X68486893Y-48986511D01*
X68675331Y-48480831D01*
X68667379Y-48260000D01*
X70268436Y-48260000D01*
X70379420Y-48817952D01*
X70695474Y-49290962D01*
X71053221Y-49530000D01*
X70695474Y-49769038D01*
X70379420Y-50242048D01*
X70268436Y-50800000D01*
X70379420Y-51357952D01*
X70695474Y-51830962D01*
X71053221Y-52070000D01*
X70695474Y-52309038D01*
X70379420Y-52782048D01*
X70268436Y-53340000D01*
X70379420Y-53897952D01*
X70695474Y-54370962D01*
X71053221Y-54610000D01*
X70695474Y-54849038D01*
X70379420Y-55322048D01*
X70268436Y-55880000D01*
X70379420Y-56437952D01*
X70695474Y-56910962D01*
X71053221Y-57150000D01*
X70695474Y-57389038D01*
X70379420Y-57862048D01*
X70268436Y-58420000D01*
X70379420Y-58977952D01*
X70695474Y-59450962D01*
X71053221Y-59690000D01*
X70695474Y-59929038D01*
X70379420Y-60402048D01*
X70268436Y-60960000D01*
X70379420Y-61517952D01*
X70695474Y-61990962D01*
X71069249Y-62240709D01*
X70906459Y-62314350D01*
X70517322Y-62729325D01*
X70334888Y-63169780D01*
X70465688Y-63396000D01*
X71651000Y-63396000D01*
X71651000Y-63376000D01*
X71859000Y-63376000D01*
X71859000Y-63396000D01*
X73044312Y-63396000D01*
X73175112Y-63169780D01*
X72992678Y-62729325D01*
X72603541Y-62314350D01*
X72440751Y-62240709D01*
X72814526Y-61990962D01*
X73130580Y-61517952D01*
X73241564Y-60960000D01*
X73130580Y-60402048D01*
X72814526Y-59929038D01*
X72456779Y-59690000D01*
X72814526Y-59450962D01*
X73130580Y-58977952D01*
X73241564Y-58420000D01*
X73130580Y-57862048D01*
X72814526Y-57389038D01*
X72456779Y-57150000D01*
X72814526Y-56910962D01*
X73130580Y-56437952D01*
X73241564Y-55880000D01*
X73130580Y-55322048D01*
X72814526Y-54849038D01*
X72456779Y-54610000D01*
X72814526Y-54370962D01*
X73130580Y-53897952D01*
X73241564Y-53340000D01*
X73130580Y-52782048D01*
X72814526Y-52309038D01*
X72456779Y-52070000D01*
X72814526Y-51830962D01*
X73130580Y-51357952D01*
X73241564Y-50800000D01*
X73130580Y-50242048D01*
X72814526Y-49769038D01*
X72456779Y-49530000D01*
X72814526Y-49290962D01*
X73130580Y-48817952D01*
X73241564Y-48260000D01*
X73130580Y-47702048D01*
X72814526Y-47229038D01*
X72712952Y-47161169D01*
X72798840Y-47145008D01*
X73022792Y-47000899D01*
X73173033Y-46781014D01*
X73225890Y-46520000D01*
X73225890Y-44920000D01*
X73180008Y-44676160D01*
X73035899Y-44452208D01*
X72816014Y-44301967D01*
X72555000Y-44249110D01*
X70955000Y-44249110D01*
X70711160Y-44294992D01*
X70487208Y-44439101D01*
X70336967Y-44658986D01*
X70284110Y-44920000D01*
X70284110Y-46520000D01*
X70329992Y-46763840D01*
X70474101Y-46987792D01*
X70693986Y-47138033D01*
X70799649Y-47159431D01*
X70695474Y-47229038D01*
X70379420Y-47702048D01*
X70268436Y-48260000D01*
X68667379Y-48260000D01*
X68655910Y-47941532D01*
X68486893Y-47533489D01*
X68242058Y-47475020D01*
X67457078Y-48260000D01*
X67162922Y-48260000D01*
X66377942Y-47475020D01*
X66133107Y-47533489D01*
X65944669Y-48039169D01*
X63598494Y-48039169D01*
X63792674Y-47845328D01*
X64007511Y-47327942D01*
X66525020Y-47327942D01*
X67310000Y-48112922D01*
X68094980Y-47327942D01*
X68036511Y-47083107D01*
X67530831Y-46894669D01*
X66991532Y-46914090D01*
X66583489Y-47083107D01*
X66525020Y-47327942D01*
X64007511Y-47327942D01*
X64022737Y-47291276D01*
X64023261Y-46691356D01*
X63794165Y-46136903D01*
X63370328Y-45712326D01*
X62816276Y-45482263D01*
X62216356Y-45481739D01*
X61661903Y-45710835D01*
X61237326Y-46134672D01*
X61007263Y-46688724D01*
X61006739Y-47288644D01*
X58022739Y-47288644D01*
X58023261Y-46691356D01*
X57794165Y-46136903D01*
X57370328Y-45712326D01*
X56816276Y-45482263D01*
X56216356Y-45481739D01*
X55661903Y-45710835D01*
X55343000Y-46029182D01*
X55343000Y-33753000D01*
X153572000Y-33753000D01*
X153572000Y-81817000D01*
M02*
